%TF.GenerationSoftware,KiCad,Pcbnew,(5.1.10)-1*%
%TF.CreationDate,2021-12-08T13:53:17+01:00*%
%TF.ProjectId,shield_octo,73686965-6c64-45f6-9f63-746f2e6b6963,1*%
%TF.SameCoordinates,Original*%
%TF.FileFunction,Copper,L2,Bot*%
%TF.FilePolarity,Positive*%
%FSLAX46Y46*%
G04 Gerber Fmt 4.6, Leading zero omitted, Abs format (unit mm)*
G04 Created by KiCad (PCBNEW (5.1.10)-1) date 2021-12-08 13:53:17*
%MOMM*%
%LPD*%
G01*
G04 APERTURE LIST*
%TA.AperFunction,NonConductor*%
%ADD10C,0.300000*%
%TD*%
%TA.AperFunction,ComponentPad*%
%ADD11C,1.800000*%
%TD*%
%TA.AperFunction,ComponentPad*%
%ADD12R,1.800000X1.800000*%
%TD*%
%TA.AperFunction,ComponentPad*%
%ADD13O,1.700000X1.700000*%
%TD*%
%TA.AperFunction,ComponentPad*%
%ADD14R,1.700000X1.700000*%
%TD*%
%TA.AperFunction,ComponentPad*%
%ADD15C,5.400000*%
%TD*%
%TA.AperFunction,ViaPad*%
%ADD16C,0.800000*%
%TD*%
%TA.AperFunction,Conductor*%
%ADD17C,0.250000*%
%TD*%
%TA.AperFunction,Conductor*%
%ADD18C,0.254000*%
%TD*%
%TA.AperFunction,Conductor*%
%ADD19C,0.100000*%
%TD*%
G04 APERTURE END LIST*
D10*
X176764000Y-110509857D02*
X176549714Y-110581285D01*
X176478285Y-110652714D01*
X176406857Y-110795571D01*
X176406857Y-111009857D01*
X176478285Y-111152714D01*
X176549714Y-111224142D01*
X176692571Y-111295571D01*
X177264000Y-111295571D01*
X177264000Y-109795571D01*
X176764000Y-109795571D01*
X176621142Y-109867000D01*
X176549714Y-109938428D01*
X176478285Y-110081285D01*
X176478285Y-110224142D01*
X176549714Y-110367000D01*
X176621142Y-110438428D01*
X176764000Y-110509857D01*
X177264000Y-110509857D01*
X175478285Y-109795571D02*
X175192571Y-109795571D01*
X175049714Y-109867000D01*
X174906857Y-110009857D01*
X174835428Y-110295571D01*
X174835428Y-110795571D01*
X174906857Y-111081285D01*
X175049714Y-111224142D01*
X175192571Y-111295571D01*
X175478285Y-111295571D01*
X175621142Y-111224142D01*
X175764000Y-111081285D01*
X175835428Y-110795571D01*
X175835428Y-110295571D01*
X175764000Y-110009857D01*
X175621142Y-109867000D01*
X175478285Y-109795571D01*
X174406857Y-109795571D02*
X173549714Y-109795571D01*
X173978285Y-111295571D02*
X173978285Y-109795571D01*
D11*
%TO.P,X4,2*%
%TO.N,GND*%
X119668000Y-77208000D03*
D12*
%TO.P,X4,1*%
%TO.N,+5V*%
X124668000Y-74668000D03*
D11*
%TO.P,X4,2*%
%TO.N,GND*%
X124668000Y-77208000D03*
D12*
%TO.P,X4,1*%
%TO.N,+5V*%
X119668000Y-74668000D03*
%TD*%
%TO.P,X3,1*%
%TO.N,/COM3*%
X123444000Y-110744000D03*
D11*
%TO.P,X3,2*%
%TO.N,/DRV9*%
X125984000Y-110744000D03*
%TO.P,X3,3*%
%TO.N,/DRV10*%
X128524000Y-110744000D03*
%TO.P,X3,4*%
%TO.N,/DRV11*%
X131064000Y-110744000D03*
%TO.P,X3,5*%
%TO.N,/DRV12*%
X133604000Y-110744000D03*
X133604000Y-115744000D03*
%TO.P,X3,4*%
%TO.N,/DRV11*%
X131064000Y-115744000D03*
%TO.P,X3,3*%
%TO.N,/DRV10*%
X128524000Y-115744000D03*
%TO.P,X3,2*%
%TO.N,/DRV9*%
X125984000Y-115744000D03*
D12*
%TO.P,X3,1*%
%TO.N,/COM3*%
X123444000Y-115744000D03*
%TD*%
%TO.P,X2,1*%
%TO.N,/COM2*%
X141478000Y-110744000D03*
D11*
%TO.P,X2,2*%
%TO.N,/DRV5*%
X144018000Y-110744000D03*
%TO.P,X2,3*%
%TO.N,/DRV6*%
X146558000Y-110744000D03*
%TO.P,X2,4*%
%TO.N,/DRV7*%
X149098000Y-110744000D03*
%TO.P,X2,5*%
%TO.N,/DRV8*%
X151638000Y-110744000D03*
X151638000Y-115744000D03*
%TO.P,X2,4*%
%TO.N,/DRV7*%
X149098000Y-115744000D03*
%TO.P,X2,3*%
%TO.N,/DRV6*%
X146558000Y-115744000D03*
%TO.P,X2,2*%
%TO.N,/DRV5*%
X144018000Y-115744000D03*
D12*
%TO.P,X2,1*%
%TO.N,/COM2*%
X141478000Y-115744000D03*
%TD*%
%TO.P,X1,1*%
%TO.N,/COM1*%
X159500000Y-110744000D03*
D11*
%TO.P,X1,2*%
%TO.N,/DRV1*%
X162040000Y-110744000D03*
%TO.P,X1,3*%
%TO.N,/DRV2*%
X164580000Y-110744000D03*
%TO.P,X1,4*%
%TO.N,/DRV3*%
X167120000Y-110744000D03*
%TO.P,X1,5*%
%TO.N,/DRV4*%
X169660000Y-110744000D03*
X169660000Y-115744000D03*
%TO.P,X1,4*%
%TO.N,/DRV3*%
X167120000Y-115744000D03*
%TO.P,X1,3*%
%TO.N,/DRV2*%
X164580000Y-115744000D03*
%TO.P,X1,2*%
%TO.N,/DRV1*%
X162040000Y-115744000D03*
D12*
%TO.P,X1,1*%
%TO.N,/COM1*%
X159500000Y-115744000D03*
%TD*%
D13*
%TO.P,K1,40*%
%TO.N,Net-(K1-Pad40)*%
X170660000Y-66230000D03*
%TO.P,K1,39*%
%TO.N,GND*%
X170660000Y-68770000D03*
%TO.P,K1,38*%
%TO.N,Net-(K1-Pad38)*%
X168120000Y-66230000D03*
%TO.P,K1,37*%
%TO.N,Net-(K1-Pad37)*%
X168120000Y-68770000D03*
%TO.P,K1,36*%
%TO.N,Net-(K1-Pad36)*%
X165580000Y-66230000D03*
%TO.P,K1,35*%
%TO.N,Net-(K1-Pad35)*%
X165580000Y-68770000D03*
%TO.P,K1,34*%
%TO.N,GND*%
X163040000Y-66230000D03*
%TO.P,K1,33*%
%TO.N,Net-(K1-Pad33)*%
X163040000Y-68770000D03*
%TO.P,K1,32*%
%TO.N,Net-(K1-Pad32)*%
X160500000Y-66230000D03*
%TO.P,K1,31*%
%TO.N,/CMD7*%
X160500000Y-68770000D03*
%TO.P,K1,30*%
%TO.N,GND*%
X157960000Y-66230000D03*
%TO.P,K1,29*%
%TO.N,/CMD6*%
X157960000Y-68770000D03*
%TO.P,K1,28*%
%TO.N,/CMD2*%
X155420000Y-66230000D03*
%TO.P,K1,27*%
%TO.N,/CMD1*%
X155420000Y-68770000D03*
%TO.P,K1,26*%
%TO.N,/CMD8*%
X152880000Y-66230000D03*
%TO.P,K1,25*%
%TO.N,GND*%
X152880000Y-68770000D03*
%TO.P,K1,24*%
%TO.N,/CMD9*%
X150340000Y-66230000D03*
%TO.P,K1,23*%
%TO.N,/CMD12*%
X150340000Y-68770000D03*
%TO.P,K1,22*%
%TO.N,Net-(K1-Pad22)*%
X147800000Y-66230000D03*
%TO.P,K1,21*%
%TO.N,/CMD10*%
X147800000Y-68770000D03*
%TO.P,K1,20*%
%TO.N,GND*%
X145260000Y-66230000D03*
%TO.P,K1,19*%
%TO.N,/CMD11*%
X145260000Y-68770000D03*
%TO.P,K1,18*%
%TO.N,Net-(K1-Pad18)*%
X142720000Y-66230000D03*
%TO.P,K1,17*%
%TO.N,Net-(K1-Pad17)*%
X142720000Y-68770000D03*
%TO.P,K1,16*%
%TO.N,Net-(K1-Pad16)*%
X140180000Y-66230000D03*
%TO.P,K1,15*%
%TO.N,Net-(K1-Pad15)*%
X140180000Y-68770000D03*
%TO.P,K1,14*%
%TO.N,GND*%
X137640000Y-66230000D03*
%TO.P,K1,13*%
%TO.N,Net-(K1-Pad13)*%
X137640000Y-68770000D03*
%TO.P,K1,12*%
%TO.N,Net-(K1-Pad12)*%
X135100000Y-66230000D03*
%TO.P,K1,11*%
%TO.N,Net-(K1-Pad11)*%
X135100000Y-68770000D03*
%TO.P,K1,10*%
%TO.N,Net-(K1-Pad10)*%
X132560000Y-66230000D03*
%TO.P,K1,9*%
%TO.N,GND*%
X132560000Y-68770000D03*
%TO.P,K1,8*%
%TO.N,Net-(K1-Pad8)*%
X130020000Y-66230000D03*
%TO.P,K1,7*%
%TO.N,/CMD5*%
X130020000Y-68770000D03*
%TO.P,K1,6*%
%TO.N,GND*%
X127480000Y-66230000D03*
%TO.P,K1,5*%
%TO.N,/CMD4*%
X127480000Y-68770000D03*
%TO.P,K1,4*%
%TO.N,+5V*%
X124940000Y-66230000D03*
%TO.P,K1,3*%
%TO.N,/CMD3*%
X124940000Y-68770000D03*
%TO.P,K1,2*%
%TO.N,+5V*%
X122400000Y-66230000D03*
D14*
%TO.P,K1,1*%
%TO.N,Net-(K1-Pad1)*%
X122400000Y-68770000D03*
%TD*%
D15*
%TO.P,H4,1*%
%TO.N,N/C*%
X175500000Y-67500000D03*
%TD*%
%TO.P,H3,1*%
%TO.N,N/C*%
X117500000Y-116500000D03*
%TD*%
%TO.P,H2,1*%
%TO.N,N/C*%
X175500000Y-116500000D03*
%TD*%
%TO.P,H1,1*%
%TO.N,N/C*%
X117500000Y-67500000D03*
%TD*%
D16*
%TO.N,GND*%
X137500000Y-118500000D03*
X137500000Y-113000000D03*
X137500000Y-108000000D03*
X155500000Y-118500000D03*
X155500000Y-113000000D03*
X155500000Y-108000000D03*
X176000000Y-108000000D03*
X176000000Y-98000000D03*
X176022000Y-86868000D03*
X176000000Y-78000000D03*
X117000000Y-108000000D03*
X157000000Y-96500000D03*
X163500000Y-96500000D03*
X138000000Y-96500000D03*
X138049000Y-103378000D03*
X156972000Y-77470000D03*
X159258000Y-77470000D03*
X129540000Y-101600000D03*
X116967000Y-71374000D03*
X122301000Y-71374000D03*
X119634000Y-81153000D03*
X119634000Y-94615000D03*
X130048000Y-81153000D03*
X153035000Y-72771000D03*
%TO.N,/CMD7*%
X158763000Y-72086205D03*
%TO.N,/CMD6*%
X164465000Y-90297000D03*
%TO.N,/CMD2*%
X154806889Y-72707458D03*
%TO.N,/CMD1*%
X151637994Y-74422000D03*
%TO.N,/CMD8*%
X151638000Y-72771000D03*
%TO.N,/CMD9*%
X139446000Y-88519000D03*
%TO.N,/CMD12*%
X151765000Y-90170000D03*
%TO.N,/CMD10*%
X142240000Y-88519000D03*
%TO.N,/CMD11*%
X145669000Y-87376000D03*
%TO.N,/CMD5*%
X144272000Y-87376000D03*
X130048000Y-73279000D03*
%TO.N,/CMD4*%
X133832786Y-70811184D03*
%TO.N,/CMD3*%
X133858000Y-72009000D03*
%TO.N,/COM1*%
X158750000Y-87122000D03*
%TO.N,/COM2*%
X133223000Y-87376000D03*
%TO.N,/DRV7*%
X135763000Y-87376000D03*
%TO.N,/DRV8*%
X144526000Y-91567014D03*
%TD*%
D17*
%TO.N,GND*%
X119668000Y-77208000D02*
X124706000Y-77208000D01*
%TO.N,/CMD7*%
X158763000Y-70472000D02*
X158763000Y-72086205D01*
X160528000Y-68707000D02*
X158763000Y-70472000D01*
%TO.N,/CMD6*%
X157988000Y-83820000D02*
X164465000Y-90297000D01*
X157988000Y-68833000D02*
X157988000Y-83820000D01*
X157925000Y-68770000D02*
X157988000Y-68833000D01*
X157960000Y-68770000D02*
X157925000Y-68770000D01*
%TO.N,/CMD2*%
X154159001Y-67490999D02*
X154159001Y-72059570D01*
X155420000Y-66230000D02*
X154159001Y-67490999D01*
X154159001Y-72059570D02*
X154806889Y-72707458D01*
%TO.N,/CMD1*%
X154940000Y-74422000D02*
X151637994Y-74422000D01*
X155842003Y-73519997D02*
X154940000Y-74422000D01*
X155842003Y-72022003D02*
X155842003Y-73519997D01*
X155448000Y-71628000D02*
X155842003Y-72022003D01*
X155448000Y-69241002D02*
X155448000Y-71628000D01*
X155715001Y-68974001D02*
X155448000Y-69241002D01*
%TO.N,/CMD8*%
X151638000Y-72205315D02*
X151638000Y-72771000D01*
X151638000Y-67437000D02*
X151638000Y-72205315D01*
X152908000Y-66167000D02*
X151638000Y-67437000D01*
%TO.N,/CMD9*%
X140843000Y-88519000D02*
X139446000Y-88519000D01*
X141618001Y-89294001D02*
X140843000Y-88519000D01*
X146798999Y-89294001D02*
X141618001Y-89294001D01*
X149114999Y-86978001D02*
X146798999Y-89294001D01*
X149114999Y-67455001D02*
X149114999Y-86978001D01*
X150340000Y-66230000D02*
X149114999Y-67455001D01*
%TO.N,/CMD12*%
X150340000Y-68770000D02*
X150340000Y-88745000D01*
X150340000Y-88745000D02*
X151765000Y-90170000D01*
%TO.N,/CMD10*%
X147800000Y-68770000D02*
X147800000Y-87277000D01*
X146558000Y-88519000D02*
X142240000Y-88519000D01*
X147800000Y-87277000D02*
X146558000Y-88519000D01*
%TO.N,/CMD11*%
X145260000Y-86967000D02*
X145669000Y-87376000D01*
X145260000Y-68770000D02*
X145260000Y-86967000D01*
%TO.N,/CMD5*%
X130175000Y-73279000D02*
X130048000Y-73279000D01*
X144272000Y-87376000D02*
X130175000Y-73279000D01*
%TO.N,/CMD4*%
X127508000Y-68834000D02*
X129485184Y-70811184D01*
X133267101Y-70811184D02*
X133832786Y-70811184D01*
X129485184Y-70811184D02*
X133267101Y-70811184D01*
%TO.N,+5V*%
X119668000Y-74668000D02*
X124706000Y-74668000D01*
%TO.N,/CMD3*%
X124940000Y-68770000D02*
X128179000Y-72009000D01*
X128179000Y-72009000D02*
X133858000Y-72009000D01*
%TO.N,/COM1*%
X158750000Y-88900000D02*
X158750000Y-87122000D01*
X159512000Y-89662000D02*
X158750000Y-88900000D01*
X159512000Y-110744000D02*
X159512000Y-89662000D01*
%TO.N,/COM2*%
X141478000Y-97790000D02*
X141478000Y-110744000D01*
X133223000Y-89535000D02*
X141478000Y-97790000D01*
X133223000Y-87376000D02*
X133223000Y-89535000D01*
%TO.N,/DRV7*%
X135763000Y-87376000D02*
X149098000Y-100711000D01*
X149098000Y-100711000D02*
X149098000Y-110744000D01*
%TO.N,/DRV8*%
X151638000Y-98679014D02*
X144526000Y-91567014D01*
X151638000Y-110744000D02*
X151638000Y-98679014D01*
%TD*%
D18*
%TO.N,GND*%
X173374061Y-64909536D02*
X172909536Y-65374061D01*
X172544561Y-65920285D01*
X172293162Y-66527216D01*
X172165000Y-67171531D01*
X172165000Y-67828469D01*
X172293162Y-68472784D01*
X172544561Y-69079715D01*
X172909536Y-69625939D01*
X173374061Y-70090464D01*
X173920285Y-70455439D01*
X174527216Y-70706838D01*
X175171531Y-70835000D01*
X175828469Y-70835000D01*
X176472784Y-70706838D01*
X177079715Y-70455439D01*
X177625939Y-70090464D01*
X178090464Y-69625939D01*
X178340000Y-69252482D01*
X178340001Y-108827000D01*
X172621857Y-108827000D01*
X172621857Y-112647000D01*
X178340001Y-112647000D01*
X178340001Y-114747520D01*
X178090464Y-114374061D01*
X177625939Y-113909536D01*
X177079715Y-113544561D01*
X176472784Y-113293162D01*
X175828469Y-113165000D01*
X175171531Y-113165000D01*
X174527216Y-113293162D01*
X173920285Y-113544561D01*
X173374061Y-113909536D01*
X172909536Y-114374061D01*
X172544561Y-114920285D01*
X172293162Y-115527216D01*
X172165000Y-116171531D01*
X172165000Y-116828469D01*
X172293162Y-117472784D01*
X172544561Y-118079715D01*
X172909536Y-118625939D01*
X173374061Y-119090464D01*
X173747518Y-119340000D01*
X119252482Y-119340000D01*
X119625939Y-119090464D01*
X120090464Y-118625939D01*
X120455439Y-118079715D01*
X120706838Y-117472784D01*
X120835000Y-116828469D01*
X120835000Y-116171531D01*
X120706838Y-115527216D01*
X120455439Y-114920285D01*
X120404468Y-114844000D01*
X121905928Y-114844000D01*
X121905928Y-116644000D01*
X121918188Y-116768482D01*
X121954498Y-116888180D01*
X122013463Y-116998494D01*
X122092815Y-117095185D01*
X122189506Y-117174537D01*
X122299820Y-117233502D01*
X122419518Y-117269812D01*
X122544000Y-117282072D01*
X124344000Y-117282072D01*
X124468482Y-117269812D01*
X124588180Y-117233502D01*
X124698494Y-117174537D01*
X124795185Y-117095185D01*
X124874537Y-116998494D01*
X124933502Y-116888180D01*
X124939056Y-116869873D01*
X125005495Y-116936312D01*
X125256905Y-117104299D01*
X125536257Y-117220011D01*
X125832816Y-117279000D01*
X126135184Y-117279000D01*
X126431743Y-117220011D01*
X126711095Y-117104299D01*
X126962505Y-116936312D01*
X127176312Y-116722505D01*
X127254000Y-116606237D01*
X127331688Y-116722505D01*
X127545495Y-116936312D01*
X127796905Y-117104299D01*
X128076257Y-117220011D01*
X128372816Y-117279000D01*
X128675184Y-117279000D01*
X128971743Y-117220011D01*
X129251095Y-117104299D01*
X129502505Y-116936312D01*
X129716312Y-116722505D01*
X129794000Y-116606237D01*
X129871688Y-116722505D01*
X130085495Y-116936312D01*
X130336905Y-117104299D01*
X130616257Y-117220011D01*
X130912816Y-117279000D01*
X131215184Y-117279000D01*
X131511743Y-117220011D01*
X131791095Y-117104299D01*
X132042505Y-116936312D01*
X132256312Y-116722505D01*
X132334000Y-116606237D01*
X132411688Y-116722505D01*
X132625495Y-116936312D01*
X132876905Y-117104299D01*
X133156257Y-117220011D01*
X133452816Y-117279000D01*
X133755184Y-117279000D01*
X134051743Y-117220011D01*
X134331095Y-117104299D01*
X134582505Y-116936312D01*
X134796312Y-116722505D01*
X134964299Y-116471095D01*
X135080011Y-116191743D01*
X135139000Y-115895184D01*
X135139000Y-115592816D01*
X135080011Y-115296257D01*
X134964299Y-115016905D01*
X134848768Y-114844000D01*
X139939928Y-114844000D01*
X139939928Y-116644000D01*
X139952188Y-116768482D01*
X139988498Y-116888180D01*
X140047463Y-116998494D01*
X140126815Y-117095185D01*
X140223506Y-117174537D01*
X140333820Y-117233502D01*
X140453518Y-117269812D01*
X140578000Y-117282072D01*
X142378000Y-117282072D01*
X142502482Y-117269812D01*
X142622180Y-117233502D01*
X142732494Y-117174537D01*
X142829185Y-117095185D01*
X142908537Y-116998494D01*
X142967502Y-116888180D01*
X142973056Y-116869873D01*
X143039495Y-116936312D01*
X143290905Y-117104299D01*
X143570257Y-117220011D01*
X143866816Y-117279000D01*
X144169184Y-117279000D01*
X144465743Y-117220011D01*
X144745095Y-117104299D01*
X144996505Y-116936312D01*
X145210312Y-116722505D01*
X145288000Y-116606237D01*
X145365688Y-116722505D01*
X145579495Y-116936312D01*
X145830905Y-117104299D01*
X146110257Y-117220011D01*
X146406816Y-117279000D01*
X146709184Y-117279000D01*
X147005743Y-117220011D01*
X147285095Y-117104299D01*
X147536505Y-116936312D01*
X147750312Y-116722505D01*
X147828000Y-116606237D01*
X147905688Y-116722505D01*
X148119495Y-116936312D01*
X148370905Y-117104299D01*
X148650257Y-117220011D01*
X148946816Y-117279000D01*
X149249184Y-117279000D01*
X149545743Y-117220011D01*
X149825095Y-117104299D01*
X150076505Y-116936312D01*
X150290312Y-116722505D01*
X150368000Y-116606237D01*
X150445688Y-116722505D01*
X150659495Y-116936312D01*
X150910905Y-117104299D01*
X151190257Y-117220011D01*
X151486816Y-117279000D01*
X151789184Y-117279000D01*
X152085743Y-117220011D01*
X152365095Y-117104299D01*
X152616505Y-116936312D01*
X152830312Y-116722505D01*
X152998299Y-116471095D01*
X153114011Y-116191743D01*
X153173000Y-115895184D01*
X153173000Y-115592816D01*
X153114011Y-115296257D01*
X152998299Y-115016905D01*
X152882768Y-114844000D01*
X157961928Y-114844000D01*
X157961928Y-116644000D01*
X157974188Y-116768482D01*
X158010498Y-116888180D01*
X158069463Y-116998494D01*
X158148815Y-117095185D01*
X158245506Y-117174537D01*
X158355820Y-117233502D01*
X158475518Y-117269812D01*
X158600000Y-117282072D01*
X160400000Y-117282072D01*
X160524482Y-117269812D01*
X160644180Y-117233502D01*
X160754494Y-117174537D01*
X160851185Y-117095185D01*
X160930537Y-116998494D01*
X160989502Y-116888180D01*
X160995056Y-116869873D01*
X161061495Y-116936312D01*
X161312905Y-117104299D01*
X161592257Y-117220011D01*
X161888816Y-117279000D01*
X162191184Y-117279000D01*
X162487743Y-117220011D01*
X162767095Y-117104299D01*
X163018505Y-116936312D01*
X163232312Y-116722505D01*
X163310000Y-116606237D01*
X163387688Y-116722505D01*
X163601495Y-116936312D01*
X163852905Y-117104299D01*
X164132257Y-117220011D01*
X164428816Y-117279000D01*
X164731184Y-117279000D01*
X165027743Y-117220011D01*
X165307095Y-117104299D01*
X165558505Y-116936312D01*
X165772312Y-116722505D01*
X165850000Y-116606237D01*
X165927688Y-116722505D01*
X166141495Y-116936312D01*
X166392905Y-117104299D01*
X166672257Y-117220011D01*
X166968816Y-117279000D01*
X167271184Y-117279000D01*
X167567743Y-117220011D01*
X167847095Y-117104299D01*
X168098505Y-116936312D01*
X168312312Y-116722505D01*
X168390000Y-116606237D01*
X168467688Y-116722505D01*
X168681495Y-116936312D01*
X168932905Y-117104299D01*
X169212257Y-117220011D01*
X169508816Y-117279000D01*
X169811184Y-117279000D01*
X170107743Y-117220011D01*
X170387095Y-117104299D01*
X170638505Y-116936312D01*
X170852312Y-116722505D01*
X171020299Y-116471095D01*
X171136011Y-116191743D01*
X171195000Y-115895184D01*
X171195000Y-115592816D01*
X171136011Y-115296257D01*
X171020299Y-115016905D01*
X170852312Y-114765495D01*
X170638505Y-114551688D01*
X170387095Y-114383701D01*
X170107743Y-114267989D01*
X169811184Y-114209000D01*
X169508816Y-114209000D01*
X169212257Y-114267989D01*
X168932905Y-114383701D01*
X168681495Y-114551688D01*
X168467688Y-114765495D01*
X168390000Y-114881763D01*
X168312312Y-114765495D01*
X168098505Y-114551688D01*
X167847095Y-114383701D01*
X167567743Y-114267989D01*
X167271184Y-114209000D01*
X166968816Y-114209000D01*
X166672257Y-114267989D01*
X166392905Y-114383701D01*
X166141495Y-114551688D01*
X165927688Y-114765495D01*
X165850000Y-114881763D01*
X165772312Y-114765495D01*
X165558505Y-114551688D01*
X165307095Y-114383701D01*
X165027743Y-114267989D01*
X164731184Y-114209000D01*
X164428816Y-114209000D01*
X164132257Y-114267989D01*
X163852905Y-114383701D01*
X163601495Y-114551688D01*
X163387688Y-114765495D01*
X163310000Y-114881763D01*
X163232312Y-114765495D01*
X163018505Y-114551688D01*
X162767095Y-114383701D01*
X162487743Y-114267989D01*
X162191184Y-114209000D01*
X161888816Y-114209000D01*
X161592257Y-114267989D01*
X161312905Y-114383701D01*
X161061495Y-114551688D01*
X160995056Y-114618127D01*
X160989502Y-114599820D01*
X160930537Y-114489506D01*
X160851185Y-114392815D01*
X160754494Y-114313463D01*
X160644180Y-114254498D01*
X160524482Y-114218188D01*
X160400000Y-114205928D01*
X158600000Y-114205928D01*
X158475518Y-114218188D01*
X158355820Y-114254498D01*
X158245506Y-114313463D01*
X158148815Y-114392815D01*
X158069463Y-114489506D01*
X158010498Y-114599820D01*
X157974188Y-114719518D01*
X157961928Y-114844000D01*
X152882768Y-114844000D01*
X152830312Y-114765495D01*
X152616505Y-114551688D01*
X152365095Y-114383701D01*
X152085743Y-114267989D01*
X151789184Y-114209000D01*
X151486816Y-114209000D01*
X151190257Y-114267989D01*
X150910905Y-114383701D01*
X150659495Y-114551688D01*
X150445688Y-114765495D01*
X150368000Y-114881763D01*
X150290312Y-114765495D01*
X150076505Y-114551688D01*
X149825095Y-114383701D01*
X149545743Y-114267989D01*
X149249184Y-114209000D01*
X148946816Y-114209000D01*
X148650257Y-114267989D01*
X148370905Y-114383701D01*
X148119495Y-114551688D01*
X147905688Y-114765495D01*
X147828000Y-114881763D01*
X147750312Y-114765495D01*
X147536505Y-114551688D01*
X147285095Y-114383701D01*
X147005743Y-114267989D01*
X146709184Y-114209000D01*
X146406816Y-114209000D01*
X146110257Y-114267989D01*
X145830905Y-114383701D01*
X145579495Y-114551688D01*
X145365688Y-114765495D01*
X145288000Y-114881763D01*
X145210312Y-114765495D01*
X144996505Y-114551688D01*
X144745095Y-114383701D01*
X144465743Y-114267989D01*
X144169184Y-114209000D01*
X143866816Y-114209000D01*
X143570257Y-114267989D01*
X143290905Y-114383701D01*
X143039495Y-114551688D01*
X142973056Y-114618127D01*
X142967502Y-114599820D01*
X142908537Y-114489506D01*
X142829185Y-114392815D01*
X142732494Y-114313463D01*
X142622180Y-114254498D01*
X142502482Y-114218188D01*
X142378000Y-114205928D01*
X140578000Y-114205928D01*
X140453518Y-114218188D01*
X140333820Y-114254498D01*
X140223506Y-114313463D01*
X140126815Y-114392815D01*
X140047463Y-114489506D01*
X139988498Y-114599820D01*
X139952188Y-114719518D01*
X139939928Y-114844000D01*
X134848768Y-114844000D01*
X134796312Y-114765495D01*
X134582505Y-114551688D01*
X134331095Y-114383701D01*
X134051743Y-114267989D01*
X133755184Y-114209000D01*
X133452816Y-114209000D01*
X133156257Y-114267989D01*
X132876905Y-114383701D01*
X132625495Y-114551688D01*
X132411688Y-114765495D01*
X132334000Y-114881763D01*
X132256312Y-114765495D01*
X132042505Y-114551688D01*
X131791095Y-114383701D01*
X131511743Y-114267989D01*
X131215184Y-114209000D01*
X130912816Y-114209000D01*
X130616257Y-114267989D01*
X130336905Y-114383701D01*
X130085495Y-114551688D01*
X129871688Y-114765495D01*
X129794000Y-114881763D01*
X129716312Y-114765495D01*
X129502505Y-114551688D01*
X129251095Y-114383701D01*
X128971743Y-114267989D01*
X128675184Y-114209000D01*
X128372816Y-114209000D01*
X128076257Y-114267989D01*
X127796905Y-114383701D01*
X127545495Y-114551688D01*
X127331688Y-114765495D01*
X127254000Y-114881763D01*
X127176312Y-114765495D01*
X126962505Y-114551688D01*
X126711095Y-114383701D01*
X126431743Y-114267989D01*
X126135184Y-114209000D01*
X125832816Y-114209000D01*
X125536257Y-114267989D01*
X125256905Y-114383701D01*
X125005495Y-114551688D01*
X124939056Y-114618127D01*
X124933502Y-114599820D01*
X124874537Y-114489506D01*
X124795185Y-114392815D01*
X124698494Y-114313463D01*
X124588180Y-114254498D01*
X124468482Y-114218188D01*
X124344000Y-114205928D01*
X122544000Y-114205928D01*
X122419518Y-114218188D01*
X122299820Y-114254498D01*
X122189506Y-114313463D01*
X122092815Y-114392815D01*
X122013463Y-114489506D01*
X121954498Y-114599820D01*
X121918188Y-114719518D01*
X121905928Y-114844000D01*
X120404468Y-114844000D01*
X120090464Y-114374061D01*
X119625939Y-113909536D01*
X119079715Y-113544561D01*
X118472784Y-113293162D01*
X117828469Y-113165000D01*
X117171531Y-113165000D01*
X116527216Y-113293162D01*
X115920285Y-113544561D01*
X115374061Y-113909536D01*
X114909536Y-114374061D01*
X114660000Y-114747518D01*
X114660000Y-109844000D01*
X121905928Y-109844000D01*
X121905928Y-111644000D01*
X121918188Y-111768482D01*
X121954498Y-111888180D01*
X122013463Y-111998494D01*
X122092815Y-112095185D01*
X122189506Y-112174537D01*
X122299820Y-112233502D01*
X122419518Y-112269812D01*
X122544000Y-112282072D01*
X124344000Y-112282072D01*
X124468482Y-112269812D01*
X124588180Y-112233502D01*
X124698494Y-112174537D01*
X124795185Y-112095185D01*
X124874537Y-111998494D01*
X124933502Y-111888180D01*
X124939056Y-111869873D01*
X125005495Y-111936312D01*
X125256905Y-112104299D01*
X125536257Y-112220011D01*
X125832816Y-112279000D01*
X126135184Y-112279000D01*
X126431743Y-112220011D01*
X126711095Y-112104299D01*
X126962505Y-111936312D01*
X127176312Y-111722505D01*
X127254000Y-111606237D01*
X127331688Y-111722505D01*
X127545495Y-111936312D01*
X127796905Y-112104299D01*
X128076257Y-112220011D01*
X128372816Y-112279000D01*
X128675184Y-112279000D01*
X128971743Y-112220011D01*
X129251095Y-112104299D01*
X129502505Y-111936312D01*
X129716312Y-111722505D01*
X129794000Y-111606237D01*
X129871688Y-111722505D01*
X130085495Y-111936312D01*
X130336905Y-112104299D01*
X130616257Y-112220011D01*
X130912816Y-112279000D01*
X131215184Y-112279000D01*
X131511743Y-112220011D01*
X131791095Y-112104299D01*
X132042505Y-111936312D01*
X132256312Y-111722505D01*
X132334000Y-111606237D01*
X132411688Y-111722505D01*
X132625495Y-111936312D01*
X132876905Y-112104299D01*
X133156257Y-112220011D01*
X133452816Y-112279000D01*
X133755184Y-112279000D01*
X134051743Y-112220011D01*
X134331095Y-112104299D01*
X134582505Y-111936312D01*
X134796312Y-111722505D01*
X134964299Y-111471095D01*
X135080011Y-111191743D01*
X135139000Y-110895184D01*
X135139000Y-110592816D01*
X135080011Y-110296257D01*
X134964299Y-110016905D01*
X134796312Y-109765495D01*
X134582505Y-109551688D01*
X134331095Y-109383701D01*
X134051743Y-109267989D01*
X133755184Y-109209000D01*
X133452816Y-109209000D01*
X133156257Y-109267989D01*
X132876905Y-109383701D01*
X132625495Y-109551688D01*
X132411688Y-109765495D01*
X132334000Y-109881763D01*
X132256312Y-109765495D01*
X132042505Y-109551688D01*
X131791095Y-109383701D01*
X131511743Y-109267989D01*
X131215184Y-109209000D01*
X130912816Y-109209000D01*
X130616257Y-109267989D01*
X130336905Y-109383701D01*
X130085495Y-109551688D01*
X129871688Y-109765495D01*
X129794000Y-109881763D01*
X129716312Y-109765495D01*
X129502505Y-109551688D01*
X129251095Y-109383701D01*
X128971743Y-109267989D01*
X128675184Y-109209000D01*
X128372816Y-109209000D01*
X128076257Y-109267989D01*
X127796905Y-109383701D01*
X127545495Y-109551688D01*
X127331688Y-109765495D01*
X127254000Y-109881763D01*
X127176312Y-109765495D01*
X126962505Y-109551688D01*
X126711095Y-109383701D01*
X126431743Y-109267989D01*
X126135184Y-109209000D01*
X125832816Y-109209000D01*
X125536257Y-109267989D01*
X125256905Y-109383701D01*
X125005495Y-109551688D01*
X124939056Y-109618127D01*
X124933502Y-109599820D01*
X124874537Y-109489506D01*
X124795185Y-109392815D01*
X124698494Y-109313463D01*
X124588180Y-109254498D01*
X124468482Y-109218188D01*
X124344000Y-109205928D01*
X122544000Y-109205928D01*
X122419518Y-109218188D01*
X122299820Y-109254498D01*
X122189506Y-109313463D01*
X122092815Y-109392815D01*
X122013463Y-109489506D01*
X121954498Y-109599820D01*
X121918188Y-109719518D01*
X121905928Y-109844000D01*
X114660000Y-109844000D01*
X114660000Y-104032279D01*
X114669580Y-103934576D01*
X114688580Y-103871644D01*
X114719445Y-103813595D01*
X114760989Y-103762657D01*
X114811644Y-103720752D01*
X114869471Y-103689485D01*
X114932272Y-103670044D01*
X115027835Y-103660000D01*
X117032419Y-103660000D01*
X117060674Y-103657217D01*
X117066801Y-103657260D01*
X117075972Y-103656360D01*
X117270069Y-103635959D01*
X117328658Y-103623932D01*
X117387423Y-103612723D01*
X117396245Y-103610059D01*
X117582683Y-103552347D01*
X117637838Y-103529162D01*
X117693291Y-103506758D01*
X117701427Y-103502432D01*
X117873104Y-103409607D01*
X117922699Y-103376154D01*
X117972753Y-103343400D01*
X117979894Y-103337576D01*
X118130272Y-103213172D01*
X118172411Y-103170737D01*
X118215161Y-103128874D01*
X118221034Y-103121773D01*
X118344384Y-102970531D01*
X118377477Y-102920723D01*
X118411284Y-102871349D01*
X118415667Y-102863243D01*
X118507292Y-102690920D01*
X118530090Y-102635608D01*
X118553652Y-102580634D01*
X118556377Y-102571831D01*
X118612786Y-102384994D01*
X118624405Y-102326314D01*
X118636842Y-102267804D01*
X118637805Y-102258639D01*
X118656850Y-102064406D01*
X118656850Y-102064402D01*
X118660000Y-102032419D01*
X118660000Y-81967581D01*
X118657217Y-81939326D01*
X118657260Y-81933199D01*
X118656360Y-81924028D01*
X118635959Y-81729931D01*
X118623934Y-81671348D01*
X118612723Y-81612577D01*
X118610059Y-81603755D01*
X118552347Y-81417317D01*
X118529162Y-81362162D01*
X118506758Y-81306709D01*
X118502432Y-81298573D01*
X118409607Y-81126896D01*
X118376139Y-81077278D01*
X118343400Y-81027247D01*
X118337576Y-81020106D01*
X118213172Y-80869728D01*
X118170737Y-80827589D01*
X118128874Y-80784839D01*
X118121773Y-80778966D01*
X117970531Y-80655616D01*
X117920738Y-80622534D01*
X117871349Y-80588716D01*
X117863243Y-80584333D01*
X117690921Y-80492708D01*
X117635606Y-80469909D01*
X117580634Y-80446348D01*
X117571831Y-80443623D01*
X117384995Y-80387214D01*
X117326307Y-80375594D01*
X117267804Y-80363158D01*
X117258639Y-80362195D01*
X117064405Y-80343150D01*
X117064402Y-80343150D01*
X117032419Y-80340000D01*
X115032279Y-80340000D01*
X114934576Y-80330420D01*
X114871643Y-80311420D01*
X114813594Y-80280554D01*
X114762657Y-80239011D01*
X114720752Y-80188356D01*
X114689485Y-80130529D01*
X114670044Y-80067728D01*
X114660000Y-79972165D01*
X114660000Y-78272080D01*
X118783525Y-78272080D01*
X118867208Y-78526261D01*
X119139775Y-78657158D01*
X119432642Y-78732365D01*
X119734553Y-78748991D01*
X120033907Y-78706397D01*
X120319199Y-78606222D01*
X120468792Y-78526261D01*
X120552475Y-78272080D01*
X123783525Y-78272080D01*
X123867208Y-78526261D01*
X124139775Y-78657158D01*
X124432642Y-78732365D01*
X124734553Y-78748991D01*
X125033907Y-78706397D01*
X125319199Y-78606222D01*
X125468792Y-78526261D01*
X125552475Y-78272080D01*
X124668000Y-77387605D01*
X123783525Y-78272080D01*
X120552475Y-78272080D01*
X119668000Y-77387605D01*
X118783525Y-78272080D01*
X114660000Y-78272080D01*
X114660000Y-77274553D01*
X118127009Y-77274553D01*
X118169603Y-77573907D01*
X118269778Y-77859199D01*
X118349739Y-78008792D01*
X118603920Y-78092475D01*
X119488395Y-77208000D01*
X119474253Y-77193858D01*
X119653858Y-77014253D01*
X119668000Y-77028395D01*
X119682143Y-77014253D01*
X119861748Y-77193858D01*
X119847605Y-77208000D01*
X120732080Y-78092475D01*
X120986261Y-78008792D01*
X121117158Y-77736225D01*
X121192365Y-77443358D01*
X121208991Y-77141447D01*
X121166397Y-76842093D01*
X121066222Y-76556801D01*
X120986261Y-76407208D01*
X120732082Y-76323526D01*
X120848030Y-76207578D01*
X120801265Y-76160813D01*
X120812180Y-76157502D01*
X120922494Y-76098537D01*
X121019185Y-76019185D01*
X121098537Y-75922494D01*
X121157502Y-75812180D01*
X121193812Y-75692482D01*
X121206072Y-75568000D01*
X121206072Y-75428000D01*
X123129928Y-75428000D01*
X123129928Y-75568000D01*
X123142188Y-75692482D01*
X123178498Y-75812180D01*
X123237463Y-75922494D01*
X123316815Y-76019185D01*
X123413506Y-76098537D01*
X123523820Y-76157502D01*
X123534735Y-76160813D01*
X123487970Y-76207578D01*
X123603918Y-76323526D01*
X123349739Y-76407208D01*
X123218842Y-76679775D01*
X123143635Y-76972642D01*
X123127009Y-77274553D01*
X123169603Y-77573907D01*
X123269778Y-77859199D01*
X123349739Y-78008792D01*
X123603920Y-78092475D01*
X124488395Y-77208000D01*
X124474253Y-77193858D01*
X124653858Y-77014253D01*
X124668000Y-77028395D01*
X124682143Y-77014253D01*
X124861748Y-77193858D01*
X124847605Y-77208000D01*
X125732080Y-78092475D01*
X125986261Y-78008792D01*
X126117158Y-77736225D01*
X126192365Y-77443358D01*
X126208991Y-77141447D01*
X126166397Y-76842093D01*
X126066222Y-76556801D01*
X125986261Y-76407208D01*
X125732082Y-76323526D01*
X125848030Y-76207578D01*
X125801265Y-76160813D01*
X125812180Y-76157502D01*
X125922494Y-76098537D01*
X126019185Y-76019185D01*
X126098537Y-75922494D01*
X126157502Y-75812180D01*
X126193812Y-75692482D01*
X126206072Y-75568000D01*
X126206072Y-73768000D01*
X126193812Y-73643518D01*
X126157502Y-73523820D01*
X126098537Y-73413506D01*
X126019185Y-73316815D01*
X125922494Y-73237463D01*
X125812180Y-73178498D01*
X125692482Y-73142188D01*
X125568000Y-73129928D01*
X123768000Y-73129928D01*
X123643518Y-73142188D01*
X123523820Y-73178498D01*
X123413506Y-73237463D01*
X123316815Y-73316815D01*
X123237463Y-73413506D01*
X123178498Y-73523820D01*
X123142188Y-73643518D01*
X123129928Y-73768000D01*
X123129928Y-73908000D01*
X121206072Y-73908000D01*
X121206072Y-73768000D01*
X121193812Y-73643518D01*
X121157502Y-73523820D01*
X121098537Y-73413506D01*
X121019185Y-73316815D01*
X120922494Y-73237463D01*
X120812180Y-73178498D01*
X120692482Y-73142188D01*
X120568000Y-73129928D01*
X118768000Y-73129928D01*
X118643518Y-73142188D01*
X118523820Y-73178498D01*
X118413506Y-73237463D01*
X118316815Y-73316815D01*
X118237463Y-73413506D01*
X118178498Y-73523820D01*
X118142188Y-73643518D01*
X118129928Y-73768000D01*
X118129928Y-75568000D01*
X118142188Y-75692482D01*
X118178498Y-75812180D01*
X118237463Y-75922494D01*
X118316815Y-76019185D01*
X118413506Y-76098537D01*
X118523820Y-76157502D01*
X118534735Y-76160813D01*
X118487970Y-76207578D01*
X118603918Y-76323526D01*
X118349739Y-76407208D01*
X118218842Y-76679775D01*
X118143635Y-76972642D01*
X118127009Y-77274553D01*
X114660000Y-77274553D01*
X114660000Y-69252482D01*
X114909536Y-69625939D01*
X115374061Y-70090464D01*
X115920285Y-70455439D01*
X116527216Y-70706838D01*
X117171531Y-70835000D01*
X117828469Y-70835000D01*
X118472784Y-70706838D01*
X119079715Y-70455439D01*
X119625939Y-70090464D01*
X120090464Y-69625939D01*
X120455439Y-69079715D01*
X120706838Y-68472784D01*
X120816793Y-67920000D01*
X120911928Y-67920000D01*
X120911928Y-69620000D01*
X120924188Y-69744482D01*
X120960498Y-69864180D01*
X121019463Y-69974494D01*
X121098815Y-70071185D01*
X121195506Y-70150537D01*
X121305820Y-70209502D01*
X121425518Y-70245812D01*
X121550000Y-70258072D01*
X123250000Y-70258072D01*
X123374482Y-70245812D01*
X123494180Y-70209502D01*
X123604494Y-70150537D01*
X123701185Y-70071185D01*
X123780537Y-69974494D01*
X123839502Y-69864180D01*
X123861513Y-69791620D01*
X123993368Y-69923475D01*
X124236589Y-70085990D01*
X124506842Y-70197932D01*
X124793740Y-70255000D01*
X125086260Y-70255000D01*
X125306408Y-70211209D01*
X127615201Y-72520003D01*
X127638999Y-72549001D01*
X127754724Y-72643974D01*
X127886753Y-72714546D01*
X128030014Y-72758003D01*
X128141667Y-72769000D01*
X128141675Y-72769000D01*
X128179000Y-72772676D01*
X128216325Y-72769000D01*
X129143987Y-72769000D01*
X129130795Y-72788744D01*
X129052774Y-72977102D01*
X129013000Y-73177061D01*
X129013000Y-73380939D01*
X129052774Y-73580898D01*
X129130795Y-73769256D01*
X129244063Y-73938774D01*
X129388226Y-74082937D01*
X129557744Y-74196205D01*
X129746102Y-74274226D01*
X129946061Y-74314000D01*
X130135199Y-74314000D01*
X132334000Y-76512801D01*
X132334000Y-86843532D01*
X132305795Y-86885744D01*
X132227774Y-87074102D01*
X132188000Y-87274061D01*
X132188000Y-87477939D01*
X132227774Y-87677898D01*
X132305795Y-87866256D01*
X132334000Y-87908468D01*
X132334000Y-89598500D01*
X132337771Y-89629216D01*
X132346131Y-89652667D01*
X132358905Y-89674036D01*
X132375604Y-89692502D01*
X132514992Y-89819129D01*
X132517454Y-89827246D01*
X132588026Y-89959276D01*
X132638693Y-90021013D01*
X132683000Y-90075001D01*
X132711998Y-90098799D01*
X140718000Y-98104802D01*
X140718001Y-109205928D01*
X140578000Y-109205928D01*
X140453518Y-109218188D01*
X140333820Y-109254498D01*
X140223506Y-109313463D01*
X140126815Y-109392815D01*
X140047463Y-109489506D01*
X139988498Y-109599820D01*
X139952188Y-109719518D01*
X139939928Y-109844000D01*
X139939928Y-111644000D01*
X139952188Y-111768482D01*
X139988498Y-111888180D01*
X140047463Y-111998494D01*
X140126815Y-112095185D01*
X140223506Y-112174537D01*
X140333820Y-112233502D01*
X140453518Y-112269812D01*
X140578000Y-112282072D01*
X142378000Y-112282072D01*
X142502482Y-112269812D01*
X142622180Y-112233502D01*
X142732494Y-112174537D01*
X142829185Y-112095185D01*
X142908537Y-111998494D01*
X142967502Y-111888180D01*
X142973056Y-111869873D01*
X143039495Y-111936312D01*
X143290905Y-112104299D01*
X143570257Y-112220011D01*
X143866816Y-112279000D01*
X144169184Y-112279000D01*
X144465743Y-112220011D01*
X144745095Y-112104299D01*
X144996505Y-111936312D01*
X145210312Y-111722505D01*
X145288000Y-111606237D01*
X145365688Y-111722505D01*
X145579495Y-111936312D01*
X145830905Y-112104299D01*
X146110257Y-112220011D01*
X146406816Y-112279000D01*
X146709184Y-112279000D01*
X147005743Y-112220011D01*
X147285095Y-112104299D01*
X147536505Y-111936312D01*
X147750312Y-111722505D01*
X147828000Y-111606237D01*
X147905688Y-111722505D01*
X148119495Y-111936312D01*
X148370905Y-112104299D01*
X148650257Y-112220011D01*
X148946816Y-112279000D01*
X149249184Y-112279000D01*
X149545743Y-112220011D01*
X149825095Y-112104299D01*
X150076505Y-111936312D01*
X150290312Y-111722505D01*
X150368000Y-111606237D01*
X150445688Y-111722505D01*
X150659495Y-111936312D01*
X150910905Y-112104299D01*
X151190257Y-112220011D01*
X151486816Y-112279000D01*
X151789184Y-112279000D01*
X152085743Y-112220011D01*
X152365095Y-112104299D01*
X152616505Y-111936312D01*
X152830312Y-111722505D01*
X152998299Y-111471095D01*
X153114011Y-111191743D01*
X153173000Y-110895184D01*
X153173000Y-110592816D01*
X153114011Y-110296257D01*
X152998299Y-110016905D01*
X152908000Y-109881763D01*
X152908000Y-87020061D01*
X157715000Y-87020061D01*
X157715000Y-87223939D01*
X157754774Y-87423898D01*
X157832795Y-87612256D01*
X157946063Y-87781774D01*
X157990001Y-87825712D01*
X157990000Y-88862677D01*
X157986324Y-88900000D01*
X157990000Y-88937322D01*
X157990000Y-88937332D01*
X158000997Y-89048985D01*
X158032845Y-89153974D01*
X158044454Y-89192246D01*
X158115026Y-89324276D01*
X158149320Y-89366063D01*
X158209999Y-89440001D01*
X158239002Y-89463803D01*
X158752001Y-89976803D01*
X158752000Y-109205928D01*
X158600000Y-109205928D01*
X158475518Y-109218188D01*
X158355820Y-109254498D01*
X158245506Y-109313463D01*
X158148815Y-109392815D01*
X158069463Y-109489506D01*
X158010498Y-109599820D01*
X157974188Y-109719518D01*
X157961928Y-109844000D01*
X157961928Y-111644000D01*
X157974188Y-111768482D01*
X158010498Y-111888180D01*
X158069463Y-111998494D01*
X158148815Y-112095185D01*
X158245506Y-112174537D01*
X158355820Y-112233502D01*
X158475518Y-112269812D01*
X158600000Y-112282072D01*
X160400000Y-112282072D01*
X160524482Y-112269812D01*
X160644180Y-112233502D01*
X160754494Y-112174537D01*
X160851185Y-112095185D01*
X160930537Y-111998494D01*
X160989502Y-111888180D01*
X160995056Y-111869873D01*
X161061495Y-111936312D01*
X161312905Y-112104299D01*
X161592257Y-112220011D01*
X161888816Y-112279000D01*
X162191184Y-112279000D01*
X162487743Y-112220011D01*
X162767095Y-112104299D01*
X163018505Y-111936312D01*
X163232312Y-111722505D01*
X163310000Y-111606237D01*
X163387688Y-111722505D01*
X163601495Y-111936312D01*
X163852905Y-112104299D01*
X164132257Y-112220011D01*
X164428816Y-112279000D01*
X164731184Y-112279000D01*
X165027743Y-112220011D01*
X165307095Y-112104299D01*
X165558505Y-111936312D01*
X165772312Y-111722505D01*
X165850000Y-111606237D01*
X165927688Y-111722505D01*
X166141495Y-111936312D01*
X166392905Y-112104299D01*
X166672257Y-112220011D01*
X166968816Y-112279000D01*
X167271184Y-112279000D01*
X167567743Y-112220011D01*
X167847095Y-112104299D01*
X168098505Y-111936312D01*
X168312312Y-111722505D01*
X168390000Y-111606237D01*
X168467688Y-111722505D01*
X168681495Y-111936312D01*
X168932905Y-112104299D01*
X169212257Y-112220011D01*
X169508816Y-112279000D01*
X169811184Y-112279000D01*
X170107743Y-112220011D01*
X170387095Y-112104299D01*
X170638505Y-111936312D01*
X170852312Y-111722505D01*
X171020299Y-111471095D01*
X171136011Y-111191743D01*
X171195000Y-110895184D01*
X171195000Y-110592816D01*
X171136011Y-110296257D01*
X171020299Y-110016905D01*
X170852312Y-109765495D01*
X170638505Y-109551688D01*
X170387095Y-109383701D01*
X170107743Y-109267989D01*
X169811184Y-109209000D01*
X169508816Y-109209000D01*
X169212257Y-109267989D01*
X168932905Y-109383701D01*
X168681495Y-109551688D01*
X168467688Y-109765495D01*
X168390000Y-109881763D01*
X168312312Y-109765495D01*
X168098505Y-109551688D01*
X167847095Y-109383701D01*
X167567743Y-109267989D01*
X167271184Y-109209000D01*
X166968816Y-109209000D01*
X166672257Y-109267989D01*
X166392905Y-109383701D01*
X166141495Y-109551688D01*
X165927688Y-109765495D01*
X165850000Y-109881763D01*
X165772312Y-109765495D01*
X165558505Y-109551688D01*
X165307095Y-109383701D01*
X165027743Y-109267989D01*
X164731184Y-109209000D01*
X164428816Y-109209000D01*
X164132257Y-109267989D01*
X163852905Y-109383701D01*
X163601495Y-109551688D01*
X163387688Y-109765495D01*
X163310000Y-109881763D01*
X163232312Y-109765495D01*
X163018505Y-109551688D01*
X162767095Y-109383701D01*
X162487743Y-109267989D01*
X162191184Y-109209000D01*
X161888816Y-109209000D01*
X161592257Y-109267989D01*
X161312905Y-109383701D01*
X161061495Y-109551688D01*
X160995056Y-109618127D01*
X160989502Y-109599820D01*
X160930537Y-109489506D01*
X160851185Y-109392815D01*
X160754494Y-109313463D01*
X160644180Y-109254498D01*
X160524482Y-109218188D01*
X160400000Y-109205928D01*
X160272000Y-109205928D01*
X160272000Y-89699325D01*
X160275676Y-89662000D01*
X160272000Y-89624675D01*
X160272000Y-89624667D01*
X160261003Y-89513014D01*
X160217546Y-89369753D01*
X160146974Y-89237724D01*
X160052001Y-89121999D01*
X160023002Y-89098201D01*
X159510000Y-88585199D01*
X159510000Y-87825711D01*
X159553937Y-87781774D01*
X159667205Y-87612256D01*
X159745226Y-87423898D01*
X159785000Y-87223939D01*
X159785000Y-87020061D01*
X159745226Y-86820102D01*
X159667205Y-86631744D01*
X159553937Y-86462226D01*
X159409774Y-86318063D01*
X159240256Y-86204795D01*
X159051898Y-86126774D01*
X158851939Y-86087000D01*
X158648061Y-86087000D01*
X158448102Y-86126774D01*
X158259744Y-86204795D01*
X158090226Y-86318063D01*
X157946063Y-86462226D01*
X157832795Y-86631744D01*
X157754774Y-86820102D01*
X157715000Y-87020061D01*
X152908000Y-87020061D01*
X152908000Y-75182000D01*
X154902678Y-75182000D01*
X154940000Y-75185676D01*
X154977322Y-75182000D01*
X154977333Y-75182000D01*
X155088986Y-75171003D01*
X155232247Y-75127546D01*
X155364276Y-75056974D01*
X155480001Y-74962001D01*
X155503803Y-74932998D01*
X156353006Y-74083796D01*
X156382004Y-74059998D01*
X156443926Y-73984546D01*
X156476977Y-73944274D01*
X156547549Y-73812244D01*
X156554296Y-73790002D01*
X156591006Y-73668983D01*
X156602003Y-73557330D01*
X156602003Y-73557320D01*
X156605679Y-73519997D01*
X156602003Y-73482674D01*
X156602003Y-72059325D01*
X156605679Y-72022002D01*
X156602003Y-71984679D01*
X156602003Y-71984670D01*
X156591006Y-71873017D01*
X156547549Y-71729756D01*
X156476977Y-71597727D01*
X156382004Y-71482002D01*
X156353006Y-71458204D01*
X156208000Y-71313198D01*
X156208000Y-70029469D01*
X156366632Y-69923475D01*
X156573475Y-69716632D01*
X156690000Y-69542240D01*
X156806525Y-69716632D01*
X157013368Y-69923475D01*
X157228000Y-70066888D01*
X157228001Y-83782667D01*
X157224324Y-83820000D01*
X157238998Y-83968985D01*
X157282454Y-84112246D01*
X157353026Y-84244276D01*
X157424201Y-84331002D01*
X157448000Y-84360001D01*
X157476998Y-84383799D01*
X163430000Y-90336802D01*
X163430000Y-90398939D01*
X163469774Y-90598898D01*
X163547795Y-90787256D01*
X163661063Y-90956774D01*
X163805226Y-91100937D01*
X163974744Y-91214205D01*
X164163102Y-91292226D01*
X164363061Y-91332000D01*
X164566939Y-91332000D01*
X164766898Y-91292226D01*
X164955256Y-91214205D01*
X165124774Y-91100937D01*
X165268937Y-90956774D01*
X165382205Y-90787256D01*
X165460226Y-90598898D01*
X165500000Y-90398939D01*
X165500000Y-90195061D01*
X165460226Y-89995102D01*
X165382205Y-89806744D01*
X165268937Y-89637226D01*
X165124774Y-89493063D01*
X164955256Y-89379795D01*
X164766898Y-89301774D01*
X164566939Y-89262000D01*
X164504802Y-89262000D01*
X158748000Y-83505199D01*
X158748000Y-73121205D01*
X158864939Y-73121205D01*
X159064898Y-73081431D01*
X159253256Y-73003410D01*
X159422774Y-72890142D01*
X159566937Y-72745979D01*
X159680205Y-72576461D01*
X159758226Y-72388103D01*
X159798000Y-72188144D01*
X159798000Y-71984266D01*
X159758226Y-71784307D01*
X159680205Y-71595949D01*
X159566937Y-71426431D01*
X159523000Y-71382494D01*
X159523000Y-70786801D01*
X160104399Y-70205403D01*
X160353740Y-70255000D01*
X160646260Y-70255000D01*
X160933158Y-70197932D01*
X161203411Y-70085990D01*
X161446632Y-69923475D01*
X161653475Y-69716632D01*
X161770000Y-69542240D01*
X161886525Y-69716632D01*
X162093368Y-69923475D01*
X162336589Y-70085990D01*
X162606842Y-70197932D01*
X162893740Y-70255000D01*
X163186260Y-70255000D01*
X163473158Y-70197932D01*
X163743411Y-70085990D01*
X163986632Y-69923475D01*
X164193475Y-69716632D01*
X164310000Y-69542240D01*
X164426525Y-69716632D01*
X164633368Y-69923475D01*
X164876589Y-70085990D01*
X165146842Y-70197932D01*
X165433740Y-70255000D01*
X165726260Y-70255000D01*
X166013158Y-70197932D01*
X166283411Y-70085990D01*
X166526632Y-69923475D01*
X166733475Y-69716632D01*
X166850000Y-69542240D01*
X166966525Y-69716632D01*
X167173368Y-69923475D01*
X167416589Y-70085990D01*
X167686842Y-70197932D01*
X167973740Y-70255000D01*
X168266260Y-70255000D01*
X168553158Y-70197932D01*
X168823411Y-70085990D01*
X169066632Y-69923475D01*
X169273475Y-69716632D01*
X169395195Y-69534466D01*
X169464822Y-69651355D01*
X169659731Y-69867588D01*
X169893080Y-70041641D01*
X170155901Y-70166825D01*
X170303110Y-70211476D01*
X170533000Y-70090155D01*
X170533000Y-68897000D01*
X170787000Y-68897000D01*
X170787000Y-70090155D01*
X171016890Y-70211476D01*
X171164099Y-70166825D01*
X171426920Y-70041641D01*
X171660269Y-69867588D01*
X171855178Y-69651355D01*
X172004157Y-69401252D01*
X172101481Y-69126891D01*
X171980814Y-68897000D01*
X170787000Y-68897000D01*
X170533000Y-68897000D01*
X170513000Y-68897000D01*
X170513000Y-68643000D01*
X170533000Y-68643000D01*
X170533000Y-68623000D01*
X170787000Y-68623000D01*
X170787000Y-68643000D01*
X171980814Y-68643000D01*
X172101481Y-68413109D01*
X172004157Y-68138748D01*
X171855178Y-67888645D01*
X171660269Y-67672412D01*
X171430594Y-67501100D01*
X171606632Y-67383475D01*
X171813475Y-67176632D01*
X171975990Y-66933411D01*
X172087932Y-66663158D01*
X172145000Y-66376260D01*
X172145000Y-66083740D01*
X172087932Y-65796842D01*
X171975990Y-65526589D01*
X171813475Y-65283368D01*
X171606632Y-65076525D01*
X171363411Y-64914010D01*
X171093158Y-64802068D01*
X170806260Y-64745000D01*
X170513740Y-64745000D01*
X170226842Y-64802068D01*
X169956589Y-64914010D01*
X169713368Y-65076525D01*
X169506525Y-65283368D01*
X169390000Y-65457760D01*
X169273475Y-65283368D01*
X169066632Y-65076525D01*
X168823411Y-64914010D01*
X168553158Y-64802068D01*
X168266260Y-64745000D01*
X167973740Y-64745000D01*
X167686842Y-64802068D01*
X167416589Y-64914010D01*
X167173368Y-65076525D01*
X166966525Y-65283368D01*
X166850000Y-65457760D01*
X166733475Y-65283368D01*
X166526632Y-65076525D01*
X166283411Y-64914010D01*
X166013158Y-64802068D01*
X165726260Y-64745000D01*
X165433740Y-64745000D01*
X165146842Y-64802068D01*
X164876589Y-64914010D01*
X164633368Y-65076525D01*
X164426525Y-65283368D01*
X164304805Y-65465534D01*
X164235178Y-65348645D01*
X164040269Y-65132412D01*
X163806920Y-64958359D01*
X163544099Y-64833175D01*
X163396890Y-64788524D01*
X163167000Y-64909845D01*
X163167000Y-66103000D01*
X163187000Y-66103000D01*
X163187000Y-66357000D01*
X163167000Y-66357000D01*
X163167000Y-66377000D01*
X162913000Y-66377000D01*
X162913000Y-66357000D01*
X162893000Y-66357000D01*
X162893000Y-66103000D01*
X162913000Y-66103000D01*
X162913000Y-64909845D01*
X162683110Y-64788524D01*
X162535901Y-64833175D01*
X162273080Y-64958359D01*
X162039731Y-65132412D01*
X161844822Y-65348645D01*
X161775195Y-65465534D01*
X161653475Y-65283368D01*
X161446632Y-65076525D01*
X161203411Y-64914010D01*
X160933158Y-64802068D01*
X160646260Y-64745000D01*
X160353740Y-64745000D01*
X160066842Y-64802068D01*
X159796589Y-64914010D01*
X159553368Y-65076525D01*
X159346525Y-65283368D01*
X159224805Y-65465534D01*
X159155178Y-65348645D01*
X158960269Y-65132412D01*
X158726920Y-64958359D01*
X158464099Y-64833175D01*
X158316890Y-64788524D01*
X158087000Y-64909845D01*
X158087000Y-66103000D01*
X158107000Y-66103000D01*
X158107000Y-66357000D01*
X158087000Y-66357000D01*
X158087000Y-66377000D01*
X157833000Y-66377000D01*
X157833000Y-66357000D01*
X157813000Y-66357000D01*
X157813000Y-66103000D01*
X157833000Y-66103000D01*
X157833000Y-64909845D01*
X157603110Y-64788524D01*
X157455901Y-64833175D01*
X157193080Y-64958359D01*
X156959731Y-65132412D01*
X156764822Y-65348645D01*
X156695195Y-65465534D01*
X156573475Y-65283368D01*
X156366632Y-65076525D01*
X156123411Y-64914010D01*
X155853158Y-64802068D01*
X155566260Y-64745000D01*
X155273740Y-64745000D01*
X154986842Y-64802068D01*
X154716589Y-64914010D01*
X154473368Y-65076525D01*
X154266525Y-65283368D01*
X154150000Y-65457760D01*
X154033475Y-65283368D01*
X153826632Y-65076525D01*
X153583411Y-64914010D01*
X153313158Y-64802068D01*
X153026260Y-64745000D01*
X152733740Y-64745000D01*
X152446842Y-64802068D01*
X152176589Y-64914010D01*
X151933368Y-65076525D01*
X151726525Y-65283368D01*
X151610000Y-65457760D01*
X151493475Y-65283368D01*
X151286632Y-65076525D01*
X151043411Y-64914010D01*
X150773158Y-64802068D01*
X150486260Y-64745000D01*
X150193740Y-64745000D01*
X149906842Y-64802068D01*
X149636589Y-64914010D01*
X149393368Y-65076525D01*
X149186525Y-65283368D01*
X149070000Y-65457760D01*
X148953475Y-65283368D01*
X148746632Y-65076525D01*
X148503411Y-64914010D01*
X148233158Y-64802068D01*
X147946260Y-64745000D01*
X147653740Y-64745000D01*
X147366842Y-64802068D01*
X147096589Y-64914010D01*
X146853368Y-65076525D01*
X146646525Y-65283368D01*
X146524805Y-65465534D01*
X146455178Y-65348645D01*
X146260269Y-65132412D01*
X146026920Y-64958359D01*
X145764099Y-64833175D01*
X145616890Y-64788524D01*
X145387000Y-64909845D01*
X145387000Y-66103000D01*
X145407000Y-66103000D01*
X145407000Y-66357000D01*
X145387000Y-66357000D01*
X145387000Y-66377000D01*
X145133000Y-66377000D01*
X145133000Y-66357000D01*
X145113000Y-66357000D01*
X145113000Y-66103000D01*
X145133000Y-66103000D01*
X145133000Y-64909845D01*
X144903110Y-64788524D01*
X144755901Y-64833175D01*
X144493080Y-64958359D01*
X144259731Y-65132412D01*
X144064822Y-65348645D01*
X143995195Y-65465534D01*
X143873475Y-65283368D01*
X143666632Y-65076525D01*
X143423411Y-64914010D01*
X143153158Y-64802068D01*
X142866260Y-64745000D01*
X142573740Y-64745000D01*
X142286842Y-64802068D01*
X142016589Y-64914010D01*
X141773368Y-65076525D01*
X141566525Y-65283368D01*
X141450000Y-65457760D01*
X141333475Y-65283368D01*
X141126632Y-65076525D01*
X140883411Y-64914010D01*
X140613158Y-64802068D01*
X140326260Y-64745000D01*
X140033740Y-64745000D01*
X139746842Y-64802068D01*
X139476589Y-64914010D01*
X139233368Y-65076525D01*
X139026525Y-65283368D01*
X138904805Y-65465534D01*
X138835178Y-65348645D01*
X138640269Y-65132412D01*
X138406920Y-64958359D01*
X138144099Y-64833175D01*
X137996890Y-64788524D01*
X137767000Y-64909845D01*
X137767000Y-66103000D01*
X137787000Y-66103000D01*
X137787000Y-66357000D01*
X137767000Y-66357000D01*
X137767000Y-66377000D01*
X137513000Y-66377000D01*
X137513000Y-66357000D01*
X137493000Y-66357000D01*
X137493000Y-66103000D01*
X137513000Y-66103000D01*
X137513000Y-64909845D01*
X137283110Y-64788524D01*
X137135901Y-64833175D01*
X136873080Y-64958359D01*
X136639731Y-65132412D01*
X136444822Y-65348645D01*
X136375195Y-65465534D01*
X136253475Y-65283368D01*
X136046632Y-65076525D01*
X135803411Y-64914010D01*
X135533158Y-64802068D01*
X135246260Y-64745000D01*
X134953740Y-64745000D01*
X134666842Y-64802068D01*
X134396589Y-64914010D01*
X134153368Y-65076525D01*
X133946525Y-65283368D01*
X133830000Y-65457760D01*
X133713475Y-65283368D01*
X133506632Y-65076525D01*
X133263411Y-64914010D01*
X132993158Y-64802068D01*
X132706260Y-64745000D01*
X132413740Y-64745000D01*
X132126842Y-64802068D01*
X131856589Y-64914010D01*
X131613368Y-65076525D01*
X131406525Y-65283368D01*
X131290000Y-65457760D01*
X131173475Y-65283368D01*
X130966632Y-65076525D01*
X130723411Y-64914010D01*
X130453158Y-64802068D01*
X130166260Y-64745000D01*
X129873740Y-64745000D01*
X129586842Y-64802068D01*
X129316589Y-64914010D01*
X129073368Y-65076525D01*
X128866525Y-65283368D01*
X128744805Y-65465534D01*
X128675178Y-65348645D01*
X128480269Y-65132412D01*
X128246920Y-64958359D01*
X127984099Y-64833175D01*
X127836890Y-64788524D01*
X127607000Y-64909845D01*
X127607000Y-66103000D01*
X127627000Y-66103000D01*
X127627000Y-66357000D01*
X127607000Y-66357000D01*
X127607000Y-66377000D01*
X127353000Y-66377000D01*
X127353000Y-66357000D01*
X127333000Y-66357000D01*
X127333000Y-66103000D01*
X127353000Y-66103000D01*
X127353000Y-64909845D01*
X127123110Y-64788524D01*
X126975901Y-64833175D01*
X126713080Y-64958359D01*
X126479731Y-65132412D01*
X126284822Y-65348645D01*
X126215195Y-65465534D01*
X126093475Y-65283368D01*
X125886632Y-65076525D01*
X125643411Y-64914010D01*
X125373158Y-64802068D01*
X125086260Y-64745000D01*
X124793740Y-64745000D01*
X124506842Y-64802068D01*
X124236589Y-64914010D01*
X123993368Y-65076525D01*
X123786525Y-65283368D01*
X123670000Y-65457760D01*
X123553475Y-65283368D01*
X123346632Y-65076525D01*
X123103411Y-64914010D01*
X122833158Y-64802068D01*
X122546260Y-64745000D01*
X122253740Y-64745000D01*
X121966842Y-64802068D01*
X121696589Y-64914010D01*
X121453368Y-65076525D01*
X121246525Y-65283368D01*
X121084010Y-65526589D01*
X120972068Y-65796842D01*
X120915000Y-66083740D01*
X120915000Y-66376260D01*
X120972068Y-66663158D01*
X121084010Y-66933411D01*
X121246525Y-67176632D01*
X121378380Y-67308487D01*
X121305820Y-67330498D01*
X121195506Y-67389463D01*
X121098815Y-67468815D01*
X121019463Y-67565506D01*
X120960498Y-67675820D01*
X120924188Y-67795518D01*
X120911928Y-67920000D01*
X120816793Y-67920000D01*
X120835000Y-67828469D01*
X120835000Y-67171531D01*
X120706838Y-66527216D01*
X120455439Y-65920285D01*
X120090464Y-65374061D01*
X119625939Y-64909536D01*
X119252482Y-64660000D01*
X173747518Y-64660000D01*
X173374061Y-64909536D01*
%TA.AperFunction,Conductor*%
D19*
G36*
X173374061Y-64909536D02*
G01*
X172909536Y-65374061D01*
X172544561Y-65920285D01*
X172293162Y-66527216D01*
X172165000Y-67171531D01*
X172165000Y-67828469D01*
X172293162Y-68472784D01*
X172544561Y-69079715D01*
X172909536Y-69625939D01*
X173374061Y-70090464D01*
X173920285Y-70455439D01*
X174527216Y-70706838D01*
X175171531Y-70835000D01*
X175828469Y-70835000D01*
X176472784Y-70706838D01*
X177079715Y-70455439D01*
X177625939Y-70090464D01*
X178090464Y-69625939D01*
X178340000Y-69252482D01*
X178340001Y-108827000D01*
X172621857Y-108827000D01*
X172621857Y-112647000D01*
X178340001Y-112647000D01*
X178340001Y-114747520D01*
X178090464Y-114374061D01*
X177625939Y-113909536D01*
X177079715Y-113544561D01*
X176472784Y-113293162D01*
X175828469Y-113165000D01*
X175171531Y-113165000D01*
X174527216Y-113293162D01*
X173920285Y-113544561D01*
X173374061Y-113909536D01*
X172909536Y-114374061D01*
X172544561Y-114920285D01*
X172293162Y-115527216D01*
X172165000Y-116171531D01*
X172165000Y-116828469D01*
X172293162Y-117472784D01*
X172544561Y-118079715D01*
X172909536Y-118625939D01*
X173374061Y-119090464D01*
X173747518Y-119340000D01*
X119252482Y-119340000D01*
X119625939Y-119090464D01*
X120090464Y-118625939D01*
X120455439Y-118079715D01*
X120706838Y-117472784D01*
X120835000Y-116828469D01*
X120835000Y-116171531D01*
X120706838Y-115527216D01*
X120455439Y-114920285D01*
X120404468Y-114844000D01*
X121905928Y-114844000D01*
X121905928Y-116644000D01*
X121918188Y-116768482D01*
X121954498Y-116888180D01*
X122013463Y-116998494D01*
X122092815Y-117095185D01*
X122189506Y-117174537D01*
X122299820Y-117233502D01*
X122419518Y-117269812D01*
X122544000Y-117282072D01*
X124344000Y-117282072D01*
X124468482Y-117269812D01*
X124588180Y-117233502D01*
X124698494Y-117174537D01*
X124795185Y-117095185D01*
X124874537Y-116998494D01*
X124933502Y-116888180D01*
X124939056Y-116869873D01*
X125005495Y-116936312D01*
X125256905Y-117104299D01*
X125536257Y-117220011D01*
X125832816Y-117279000D01*
X126135184Y-117279000D01*
X126431743Y-117220011D01*
X126711095Y-117104299D01*
X126962505Y-116936312D01*
X127176312Y-116722505D01*
X127254000Y-116606237D01*
X127331688Y-116722505D01*
X127545495Y-116936312D01*
X127796905Y-117104299D01*
X128076257Y-117220011D01*
X128372816Y-117279000D01*
X128675184Y-117279000D01*
X128971743Y-117220011D01*
X129251095Y-117104299D01*
X129502505Y-116936312D01*
X129716312Y-116722505D01*
X129794000Y-116606237D01*
X129871688Y-116722505D01*
X130085495Y-116936312D01*
X130336905Y-117104299D01*
X130616257Y-117220011D01*
X130912816Y-117279000D01*
X131215184Y-117279000D01*
X131511743Y-117220011D01*
X131791095Y-117104299D01*
X132042505Y-116936312D01*
X132256312Y-116722505D01*
X132334000Y-116606237D01*
X132411688Y-116722505D01*
X132625495Y-116936312D01*
X132876905Y-117104299D01*
X133156257Y-117220011D01*
X133452816Y-117279000D01*
X133755184Y-117279000D01*
X134051743Y-117220011D01*
X134331095Y-117104299D01*
X134582505Y-116936312D01*
X134796312Y-116722505D01*
X134964299Y-116471095D01*
X135080011Y-116191743D01*
X135139000Y-115895184D01*
X135139000Y-115592816D01*
X135080011Y-115296257D01*
X134964299Y-115016905D01*
X134848768Y-114844000D01*
X139939928Y-114844000D01*
X139939928Y-116644000D01*
X139952188Y-116768482D01*
X139988498Y-116888180D01*
X140047463Y-116998494D01*
X140126815Y-117095185D01*
X140223506Y-117174537D01*
X140333820Y-117233502D01*
X140453518Y-117269812D01*
X140578000Y-117282072D01*
X142378000Y-117282072D01*
X142502482Y-117269812D01*
X142622180Y-117233502D01*
X142732494Y-117174537D01*
X142829185Y-117095185D01*
X142908537Y-116998494D01*
X142967502Y-116888180D01*
X142973056Y-116869873D01*
X143039495Y-116936312D01*
X143290905Y-117104299D01*
X143570257Y-117220011D01*
X143866816Y-117279000D01*
X144169184Y-117279000D01*
X144465743Y-117220011D01*
X144745095Y-117104299D01*
X144996505Y-116936312D01*
X145210312Y-116722505D01*
X145288000Y-116606237D01*
X145365688Y-116722505D01*
X145579495Y-116936312D01*
X145830905Y-117104299D01*
X146110257Y-117220011D01*
X146406816Y-117279000D01*
X146709184Y-117279000D01*
X147005743Y-117220011D01*
X147285095Y-117104299D01*
X147536505Y-116936312D01*
X147750312Y-116722505D01*
X147828000Y-116606237D01*
X147905688Y-116722505D01*
X148119495Y-116936312D01*
X148370905Y-117104299D01*
X148650257Y-117220011D01*
X148946816Y-117279000D01*
X149249184Y-117279000D01*
X149545743Y-117220011D01*
X149825095Y-117104299D01*
X150076505Y-116936312D01*
X150290312Y-116722505D01*
X150368000Y-116606237D01*
X150445688Y-116722505D01*
X150659495Y-116936312D01*
X150910905Y-117104299D01*
X151190257Y-117220011D01*
X151486816Y-117279000D01*
X151789184Y-117279000D01*
X152085743Y-117220011D01*
X152365095Y-117104299D01*
X152616505Y-116936312D01*
X152830312Y-116722505D01*
X152998299Y-116471095D01*
X153114011Y-116191743D01*
X153173000Y-115895184D01*
X153173000Y-115592816D01*
X153114011Y-115296257D01*
X152998299Y-115016905D01*
X152882768Y-114844000D01*
X157961928Y-114844000D01*
X157961928Y-116644000D01*
X157974188Y-116768482D01*
X158010498Y-116888180D01*
X158069463Y-116998494D01*
X158148815Y-117095185D01*
X158245506Y-117174537D01*
X158355820Y-117233502D01*
X158475518Y-117269812D01*
X158600000Y-117282072D01*
X160400000Y-117282072D01*
X160524482Y-117269812D01*
X160644180Y-117233502D01*
X160754494Y-117174537D01*
X160851185Y-117095185D01*
X160930537Y-116998494D01*
X160989502Y-116888180D01*
X160995056Y-116869873D01*
X161061495Y-116936312D01*
X161312905Y-117104299D01*
X161592257Y-117220011D01*
X161888816Y-117279000D01*
X162191184Y-117279000D01*
X162487743Y-117220011D01*
X162767095Y-117104299D01*
X163018505Y-116936312D01*
X163232312Y-116722505D01*
X163310000Y-116606237D01*
X163387688Y-116722505D01*
X163601495Y-116936312D01*
X163852905Y-117104299D01*
X164132257Y-117220011D01*
X164428816Y-117279000D01*
X164731184Y-117279000D01*
X165027743Y-117220011D01*
X165307095Y-117104299D01*
X165558505Y-116936312D01*
X165772312Y-116722505D01*
X165850000Y-116606237D01*
X165927688Y-116722505D01*
X166141495Y-116936312D01*
X166392905Y-117104299D01*
X166672257Y-117220011D01*
X166968816Y-117279000D01*
X167271184Y-117279000D01*
X167567743Y-117220011D01*
X167847095Y-117104299D01*
X168098505Y-116936312D01*
X168312312Y-116722505D01*
X168390000Y-116606237D01*
X168467688Y-116722505D01*
X168681495Y-116936312D01*
X168932905Y-117104299D01*
X169212257Y-117220011D01*
X169508816Y-117279000D01*
X169811184Y-117279000D01*
X170107743Y-117220011D01*
X170387095Y-117104299D01*
X170638505Y-116936312D01*
X170852312Y-116722505D01*
X171020299Y-116471095D01*
X171136011Y-116191743D01*
X171195000Y-115895184D01*
X171195000Y-115592816D01*
X171136011Y-115296257D01*
X171020299Y-115016905D01*
X170852312Y-114765495D01*
X170638505Y-114551688D01*
X170387095Y-114383701D01*
X170107743Y-114267989D01*
X169811184Y-114209000D01*
X169508816Y-114209000D01*
X169212257Y-114267989D01*
X168932905Y-114383701D01*
X168681495Y-114551688D01*
X168467688Y-114765495D01*
X168390000Y-114881763D01*
X168312312Y-114765495D01*
X168098505Y-114551688D01*
X167847095Y-114383701D01*
X167567743Y-114267989D01*
X167271184Y-114209000D01*
X166968816Y-114209000D01*
X166672257Y-114267989D01*
X166392905Y-114383701D01*
X166141495Y-114551688D01*
X165927688Y-114765495D01*
X165850000Y-114881763D01*
X165772312Y-114765495D01*
X165558505Y-114551688D01*
X165307095Y-114383701D01*
X165027743Y-114267989D01*
X164731184Y-114209000D01*
X164428816Y-114209000D01*
X164132257Y-114267989D01*
X163852905Y-114383701D01*
X163601495Y-114551688D01*
X163387688Y-114765495D01*
X163310000Y-114881763D01*
X163232312Y-114765495D01*
X163018505Y-114551688D01*
X162767095Y-114383701D01*
X162487743Y-114267989D01*
X162191184Y-114209000D01*
X161888816Y-114209000D01*
X161592257Y-114267989D01*
X161312905Y-114383701D01*
X161061495Y-114551688D01*
X160995056Y-114618127D01*
X160989502Y-114599820D01*
X160930537Y-114489506D01*
X160851185Y-114392815D01*
X160754494Y-114313463D01*
X160644180Y-114254498D01*
X160524482Y-114218188D01*
X160400000Y-114205928D01*
X158600000Y-114205928D01*
X158475518Y-114218188D01*
X158355820Y-114254498D01*
X158245506Y-114313463D01*
X158148815Y-114392815D01*
X158069463Y-114489506D01*
X158010498Y-114599820D01*
X157974188Y-114719518D01*
X157961928Y-114844000D01*
X152882768Y-114844000D01*
X152830312Y-114765495D01*
X152616505Y-114551688D01*
X152365095Y-114383701D01*
X152085743Y-114267989D01*
X151789184Y-114209000D01*
X151486816Y-114209000D01*
X151190257Y-114267989D01*
X150910905Y-114383701D01*
X150659495Y-114551688D01*
X150445688Y-114765495D01*
X150368000Y-114881763D01*
X150290312Y-114765495D01*
X150076505Y-114551688D01*
X149825095Y-114383701D01*
X149545743Y-114267989D01*
X149249184Y-114209000D01*
X148946816Y-114209000D01*
X148650257Y-114267989D01*
X148370905Y-114383701D01*
X148119495Y-114551688D01*
X147905688Y-114765495D01*
X147828000Y-114881763D01*
X147750312Y-114765495D01*
X147536505Y-114551688D01*
X147285095Y-114383701D01*
X147005743Y-114267989D01*
X146709184Y-114209000D01*
X146406816Y-114209000D01*
X146110257Y-114267989D01*
X145830905Y-114383701D01*
X145579495Y-114551688D01*
X145365688Y-114765495D01*
X145288000Y-114881763D01*
X145210312Y-114765495D01*
X144996505Y-114551688D01*
X144745095Y-114383701D01*
X144465743Y-114267989D01*
X144169184Y-114209000D01*
X143866816Y-114209000D01*
X143570257Y-114267989D01*
X143290905Y-114383701D01*
X143039495Y-114551688D01*
X142973056Y-114618127D01*
X142967502Y-114599820D01*
X142908537Y-114489506D01*
X142829185Y-114392815D01*
X142732494Y-114313463D01*
X142622180Y-114254498D01*
X142502482Y-114218188D01*
X142378000Y-114205928D01*
X140578000Y-114205928D01*
X140453518Y-114218188D01*
X140333820Y-114254498D01*
X140223506Y-114313463D01*
X140126815Y-114392815D01*
X140047463Y-114489506D01*
X139988498Y-114599820D01*
X139952188Y-114719518D01*
X139939928Y-114844000D01*
X134848768Y-114844000D01*
X134796312Y-114765495D01*
X134582505Y-114551688D01*
X134331095Y-114383701D01*
X134051743Y-114267989D01*
X133755184Y-114209000D01*
X133452816Y-114209000D01*
X133156257Y-114267989D01*
X132876905Y-114383701D01*
X132625495Y-114551688D01*
X132411688Y-114765495D01*
X132334000Y-114881763D01*
X132256312Y-114765495D01*
X132042505Y-114551688D01*
X131791095Y-114383701D01*
X131511743Y-114267989D01*
X131215184Y-114209000D01*
X130912816Y-114209000D01*
X130616257Y-114267989D01*
X130336905Y-114383701D01*
X130085495Y-114551688D01*
X129871688Y-114765495D01*
X129794000Y-114881763D01*
X129716312Y-114765495D01*
X129502505Y-114551688D01*
X129251095Y-114383701D01*
X128971743Y-114267989D01*
X128675184Y-114209000D01*
X128372816Y-114209000D01*
X128076257Y-114267989D01*
X127796905Y-114383701D01*
X127545495Y-114551688D01*
X127331688Y-114765495D01*
X127254000Y-114881763D01*
X127176312Y-114765495D01*
X126962505Y-114551688D01*
X126711095Y-114383701D01*
X126431743Y-114267989D01*
X126135184Y-114209000D01*
X125832816Y-114209000D01*
X125536257Y-114267989D01*
X125256905Y-114383701D01*
X125005495Y-114551688D01*
X124939056Y-114618127D01*
X124933502Y-114599820D01*
X124874537Y-114489506D01*
X124795185Y-114392815D01*
X124698494Y-114313463D01*
X124588180Y-114254498D01*
X124468482Y-114218188D01*
X124344000Y-114205928D01*
X122544000Y-114205928D01*
X122419518Y-114218188D01*
X122299820Y-114254498D01*
X122189506Y-114313463D01*
X122092815Y-114392815D01*
X122013463Y-114489506D01*
X121954498Y-114599820D01*
X121918188Y-114719518D01*
X121905928Y-114844000D01*
X120404468Y-114844000D01*
X120090464Y-114374061D01*
X119625939Y-113909536D01*
X119079715Y-113544561D01*
X118472784Y-113293162D01*
X117828469Y-113165000D01*
X117171531Y-113165000D01*
X116527216Y-113293162D01*
X115920285Y-113544561D01*
X115374061Y-113909536D01*
X114909536Y-114374061D01*
X114660000Y-114747518D01*
X114660000Y-109844000D01*
X121905928Y-109844000D01*
X121905928Y-111644000D01*
X121918188Y-111768482D01*
X121954498Y-111888180D01*
X122013463Y-111998494D01*
X122092815Y-112095185D01*
X122189506Y-112174537D01*
X122299820Y-112233502D01*
X122419518Y-112269812D01*
X122544000Y-112282072D01*
X124344000Y-112282072D01*
X124468482Y-112269812D01*
X124588180Y-112233502D01*
X124698494Y-112174537D01*
X124795185Y-112095185D01*
X124874537Y-111998494D01*
X124933502Y-111888180D01*
X124939056Y-111869873D01*
X125005495Y-111936312D01*
X125256905Y-112104299D01*
X125536257Y-112220011D01*
X125832816Y-112279000D01*
X126135184Y-112279000D01*
X126431743Y-112220011D01*
X126711095Y-112104299D01*
X126962505Y-111936312D01*
X127176312Y-111722505D01*
X127254000Y-111606237D01*
X127331688Y-111722505D01*
X127545495Y-111936312D01*
X127796905Y-112104299D01*
X128076257Y-112220011D01*
X128372816Y-112279000D01*
X128675184Y-112279000D01*
X128971743Y-112220011D01*
X129251095Y-112104299D01*
X129502505Y-111936312D01*
X129716312Y-111722505D01*
X129794000Y-111606237D01*
X129871688Y-111722505D01*
X130085495Y-111936312D01*
X130336905Y-112104299D01*
X130616257Y-112220011D01*
X130912816Y-112279000D01*
X131215184Y-112279000D01*
X131511743Y-112220011D01*
X131791095Y-112104299D01*
X132042505Y-111936312D01*
X132256312Y-111722505D01*
X132334000Y-111606237D01*
X132411688Y-111722505D01*
X132625495Y-111936312D01*
X132876905Y-112104299D01*
X133156257Y-112220011D01*
X133452816Y-112279000D01*
X133755184Y-112279000D01*
X134051743Y-112220011D01*
X134331095Y-112104299D01*
X134582505Y-111936312D01*
X134796312Y-111722505D01*
X134964299Y-111471095D01*
X135080011Y-111191743D01*
X135139000Y-110895184D01*
X135139000Y-110592816D01*
X135080011Y-110296257D01*
X134964299Y-110016905D01*
X134796312Y-109765495D01*
X134582505Y-109551688D01*
X134331095Y-109383701D01*
X134051743Y-109267989D01*
X133755184Y-109209000D01*
X133452816Y-109209000D01*
X133156257Y-109267989D01*
X132876905Y-109383701D01*
X132625495Y-109551688D01*
X132411688Y-109765495D01*
X132334000Y-109881763D01*
X132256312Y-109765495D01*
X132042505Y-109551688D01*
X131791095Y-109383701D01*
X131511743Y-109267989D01*
X131215184Y-109209000D01*
X130912816Y-109209000D01*
X130616257Y-109267989D01*
X130336905Y-109383701D01*
X130085495Y-109551688D01*
X129871688Y-109765495D01*
X129794000Y-109881763D01*
X129716312Y-109765495D01*
X129502505Y-109551688D01*
X129251095Y-109383701D01*
X128971743Y-109267989D01*
X128675184Y-109209000D01*
X128372816Y-109209000D01*
X128076257Y-109267989D01*
X127796905Y-109383701D01*
X127545495Y-109551688D01*
X127331688Y-109765495D01*
X127254000Y-109881763D01*
X127176312Y-109765495D01*
X126962505Y-109551688D01*
X126711095Y-109383701D01*
X126431743Y-109267989D01*
X126135184Y-109209000D01*
X125832816Y-109209000D01*
X125536257Y-109267989D01*
X125256905Y-109383701D01*
X125005495Y-109551688D01*
X124939056Y-109618127D01*
X124933502Y-109599820D01*
X124874537Y-109489506D01*
X124795185Y-109392815D01*
X124698494Y-109313463D01*
X124588180Y-109254498D01*
X124468482Y-109218188D01*
X124344000Y-109205928D01*
X122544000Y-109205928D01*
X122419518Y-109218188D01*
X122299820Y-109254498D01*
X122189506Y-109313463D01*
X122092815Y-109392815D01*
X122013463Y-109489506D01*
X121954498Y-109599820D01*
X121918188Y-109719518D01*
X121905928Y-109844000D01*
X114660000Y-109844000D01*
X114660000Y-104032279D01*
X114669580Y-103934576D01*
X114688580Y-103871644D01*
X114719445Y-103813595D01*
X114760989Y-103762657D01*
X114811644Y-103720752D01*
X114869471Y-103689485D01*
X114932272Y-103670044D01*
X115027835Y-103660000D01*
X117032419Y-103660000D01*
X117060674Y-103657217D01*
X117066801Y-103657260D01*
X117075972Y-103656360D01*
X117270069Y-103635959D01*
X117328658Y-103623932D01*
X117387423Y-103612723D01*
X117396245Y-103610059D01*
X117582683Y-103552347D01*
X117637838Y-103529162D01*
X117693291Y-103506758D01*
X117701427Y-103502432D01*
X117873104Y-103409607D01*
X117922699Y-103376154D01*
X117972753Y-103343400D01*
X117979894Y-103337576D01*
X118130272Y-103213172D01*
X118172411Y-103170737D01*
X118215161Y-103128874D01*
X118221034Y-103121773D01*
X118344384Y-102970531D01*
X118377477Y-102920723D01*
X118411284Y-102871349D01*
X118415667Y-102863243D01*
X118507292Y-102690920D01*
X118530090Y-102635608D01*
X118553652Y-102580634D01*
X118556377Y-102571831D01*
X118612786Y-102384994D01*
X118624405Y-102326314D01*
X118636842Y-102267804D01*
X118637805Y-102258639D01*
X118656850Y-102064406D01*
X118656850Y-102064402D01*
X118660000Y-102032419D01*
X118660000Y-81967581D01*
X118657217Y-81939326D01*
X118657260Y-81933199D01*
X118656360Y-81924028D01*
X118635959Y-81729931D01*
X118623934Y-81671348D01*
X118612723Y-81612577D01*
X118610059Y-81603755D01*
X118552347Y-81417317D01*
X118529162Y-81362162D01*
X118506758Y-81306709D01*
X118502432Y-81298573D01*
X118409607Y-81126896D01*
X118376139Y-81077278D01*
X118343400Y-81027247D01*
X118337576Y-81020106D01*
X118213172Y-80869728D01*
X118170737Y-80827589D01*
X118128874Y-80784839D01*
X118121773Y-80778966D01*
X117970531Y-80655616D01*
X117920738Y-80622534D01*
X117871349Y-80588716D01*
X117863243Y-80584333D01*
X117690921Y-80492708D01*
X117635606Y-80469909D01*
X117580634Y-80446348D01*
X117571831Y-80443623D01*
X117384995Y-80387214D01*
X117326307Y-80375594D01*
X117267804Y-80363158D01*
X117258639Y-80362195D01*
X117064405Y-80343150D01*
X117064402Y-80343150D01*
X117032419Y-80340000D01*
X115032279Y-80340000D01*
X114934576Y-80330420D01*
X114871643Y-80311420D01*
X114813594Y-80280554D01*
X114762657Y-80239011D01*
X114720752Y-80188356D01*
X114689485Y-80130529D01*
X114670044Y-80067728D01*
X114660000Y-79972165D01*
X114660000Y-78272080D01*
X118783525Y-78272080D01*
X118867208Y-78526261D01*
X119139775Y-78657158D01*
X119432642Y-78732365D01*
X119734553Y-78748991D01*
X120033907Y-78706397D01*
X120319199Y-78606222D01*
X120468792Y-78526261D01*
X120552475Y-78272080D01*
X123783525Y-78272080D01*
X123867208Y-78526261D01*
X124139775Y-78657158D01*
X124432642Y-78732365D01*
X124734553Y-78748991D01*
X125033907Y-78706397D01*
X125319199Y-78606222D01*
X125468792Y-78526261D01*
X125552475Y-78272080D01*
X124668000Y-77387605D01*
X123783525Y-78272080D01*
X120552475Y-78272080D01*
X119668000Y-77387605D01*
X118783525Y-78272080D01*
X114660000Y-78272080D01*
X114660000Y-77274553D01*
X118127009Y-77274553D01*
X118169603Y-77573907D01*
X118269778Y-77859199D01*
X118349739Y-78008792D01*
X118603920Y-78092475D01*
X119488395Y-77208000D01*
X119474253Y-77193858D01*
X119653858Y-77014253D01*
X119668000Y-77028395D01*
X119682143Y-77014253D01*
X119861748Y-77193858D01*
X119847605Y-77208000D01*
X120732080Y-78092475D01*
X120986261Y-78008792D01*
X121117158Y-77736225D01*
X121192365Y-77443358D01*
X121208991Y-77141447D01*
X121166397Y-76842093D01*
X121066222Y-76556801D01*
X120986261Y-76407208D01*
X120732082Y-76323526D01*
X120848030Y-76207578D01*
X120801265Y-76160813D01*
X120812180Y-76157502D01*
X120922494Y-76098537D01*
X121019185Y-76019185D01*
X121098537Y-75922494D01*
X121157502Y-75812180D01*
X121193812Y-75692482D01*
X121206072Y-75568000D01*
X121206072Y-75428000D01*
X123129928Y-75428000D01*
X123129928Y-75568000D01*
X123142188Y-75692482D01*
X123178498Y-75812180D01*
X123237463Y-75922494D01*
X123316815Y-76019185D01*
X123413506Y-76098537D01*
X123523820Y-76157502D01*
X123534735Y-76160813D01*
X123487970Y-76207578D01*
X123603918Y-76323526D01*
X123349739Y-76407208D01*
X123218842Y-76679775D01*
X123143635Y-76972642D01*
X123127009Y-77274553D01*
X123169603Y-77573907D01*
X123269778Y-77859199D01*
X123349739Y-78008792D01*
X123603920Y-78092475D01*
X124488395Y-77208000D01*
X124474253Y-77193858D01*
X124653858Y-77014253D01*
X124668000Y-77028395D01*
X124682143Y-77014253D01*
X124861748Y-77193858D01*
X124847605Y-77208000D01*
X125732080Y-78092475D01*
X125986261Y-78008792D01*
X126117158Y-77736225D01*
X126192365Y-77443358D01*
X126208991Y-77141447D01*
X126166397Y-76842093D01*
X126066222Y-76556801D01*
X125986261Y-76407208D01*
X125732082Y-76323526D01*
X125848030Y-76207578D01*
X125801265Y-76160813D01*
X125812180Y-76157502D01*
X125922494Y-76098537D01*
X126019185Y-76019185D01*
X126098537Y-75922494D01*
X126157502Y-75812180D01*
X126193812Y-75692482D01*
X126206072Y-75568000D01*
X126206072Y-73768000D01*
X126193812Y-73643518D01*
X126157502Y-73523820D01*
X126098537Y-73413506D01*
X126019185Y-73316815D01*
X125922494Y-73237463D01*
X125812180Y-73178498D01*
X125692482Y-73142188D01*
X125568000Y-73129928D01*
X123768000Y-73129928D01*
X123643518Y-73142188D01*
X123523820Y-73178498D01*
X123413506Y-73237463D01*
X123316815Y-73316815D01*
X123237463Y-73413506D01*
X123178498Y-73523820D01*
X123142188Y-73643518D01*
X123129928Y-73768000D01*
X123129928Y-73908000D01*
X121206072Y-73908000D01*
X121206072Y-73768000D01*
X121193812Y-73643518D01*
X121157502Y-73523820D01*
X121098537Y-73413506D01*
X121019185Y-73316815D01*
X120922494Y-73237463D01*
X120812180Y-73178498D01*
X120692482Y-73142188D01*
X120568000Y-73129928D01*
X118768000Y-73129928D01*
X118643518Y-73142188D01*
X118523820Y-73178498D01*
X118413506Y-73237463D01*
X118316815Y-73316815D01*
X118237463Y-73413506D01*
X118178498Y-73523820D01*
X118142188Y-73643518D01*
X118129928Y-73768000D01*
X118129928Y-75568000D01*
X118142188Y-75692482D01*
X118178498Y-75812180D01*
X118237463Y-75922494D01*
X118316815Y-76019185D01*
X118413506Y-76098537D01*
X118523820Y-76157502D01*
X118534735Y-76160813D01*
X118487970Y-76207578D01*
X118603918Y-76323526D01*
X118349739Y-76407208D01*
X118218842Y-76679775D01*
X118143635Y-76972642D01*
X118127009Y-77274553D01*
X114660000Y-77274553D01*
X114660000Y-69252482D01*
X114909536Y-69625939D01*
X115374061Y-70090464D01*
X115920285Y-70455439D01*
X116527216Y-70706838D01*
X117171531Y-70835000D01*
X117828469Y-70835000D01*
X118472784Y-70706838D01*
X119079715Y-70455439D01*
X119625939Y-70090464D01*
X120090464Y-69625939D01*
X120455439Y-69079715D01*
X120706838Y-68472784D01*
X120816793Y-67920000D01*
X120911928Y-67920000D01*
X120911928Y-69620000D01*
X120924188Y-69744482D01*
X120960498Y-69864180D01*
X121019463Y-69974494D01*
X121098815Y-70071185D01*
X121195506Y-70150537D01*
X121305820Y-70209502D01*
X121425518Y-70245812D01*
X121550000Y-70258072D01*
X123250000Y-70258072D01*
X123374482Y-70245812D01*
X123494180Y-70209502D01*
X123604494Y-70150537D01*
X123701185Y-70071185D01*
X123780537Y-69974494D01*
X123839502Y-69864180D01*
X123861513Y-69791620D01*
X123993368Y-69923475D01*
X124236589Y-70085990D01*
X124506842Y-70197932D01*
X124793740Y-70255000D01*
X125086260Y-70255000D01*
X125306408Y-70211209D01*
X127615201Y-72520003D01*
X127638999Y-72549001D01*
X127754724Y-72643974D01*
X127886753Y-72714546D01*
X128030014Y-72758003D01*
X128141667Y-72769000D01*
X128141675Y-72769000D01*
X128179000Y-72772676D01*
X128216325Y-72769000D01*
X129143987Y-72769000D01*
X129130795Y-72788744D01*
X129052774Y-72977102D01*
X129013000Y-73177061D01*
X129013000Y-73380939D01*
X129052774Y-73580898D01*
X129130795Y-73769256D01*
X129244063Y-73938774D01*
X129388226Y-74082937D01*
X129557744Y-74196205D01*
X129746102Y-74274226D01*
X129946061Y-74314000D01*
X130135199Y-74314000D01*
X132334000Y-76512801D01*
X132334000Y-86843532D01*
X132305795Y-86885744D01*
X132227774Y-87074102D01*
X132188000Y-87274061D01*
X132188000Y-87477939D01*
X132227774Y-87677898D01*
X132305795Y-87866256D01*
X132334000Y-87908468D01*
X132334000Y-89598500D01*
X132337771Y-89629216D01*
X132346131Y-89652667D01*
X132358905Y-89674036D01*
X132375604Y-89692502D01*
X132514992Y-89819129D01*
X132517454Y-89827246D01*
X132588026Y-89959276D01*
X132638693Y-90021013D01*
X132683000Y-90075001D01*
X132711998Y-90098799D01*
X140718000Y-98104802D01*
X140718001Y-109205928D01*
X140578000Y-109205928D01*
X140453518Y-109218188D01*
X140333820Y-109254498D01*
X140223506Y-109313463D01*
X140126815Y-109392815D01*
X140047463Y-109489506D01*
X139988498Y-109599820D01*
X139952188Y-109719518D01*
X139939928Y-109844000D01*
X139939928Y-111644000D01*
X139952188Y-111768482D01*
X139988498Y-111888180D01*
X140047463Y-111998494D01*
X140126815Y-112095185D01*
X140223506Y-112174537D01*
X140333820Y-112233502D01*
X140453518Y-112269812D01*
X140578000Y-112282072D01*
X142378000Y-112282072D01*
X142502482Y-112269812D01*
X142622180Y-112233502D01*
X142732494Y-112174537D01*
X142829185Y-112095185D01*
X142908537Y-111998494D01*
X142967502Y-111888180D01*
X142973056Y-111869873D01*
X143039495Y-111936312D01*
X143290905Y-112104299D01*
X143570257Y-112220011D01*
X143866816Y-112279000D01*
X144169184Y-112279000D01*
X144465743Y-112220011D01*
X144745095Y-112104299D01*
X144996505Y-111936312D01*
X145210312Y-111722505D01*
X145288000Y-111606237D01*
X145365688Y-111722505D01*
X145579495Y-111936312D01*
X145830905Y-112104299D01*
X146110257Y-112220011D01*
X146406816Y-112279000D01*
X146709184Y-112279000D01*
X147005743Y-112220011D01*
X147285095Y-112104299D01*
X147536505Y-111936312D01*
X147750312Y-111722505D01*
X147828000Y-111606237D01*
X147905688Y-111722505D01*
X148119495Y-111936312D01*
X148370905Y-112104299D01*
X148650257Y-112220011D01*
X148946816Y-112279000D01*
X149249184Y-112279000D01*
X149545743Y-112220011D01*
X149825095Y-112104299D01*
X150076505Y-111936312D01*
X150290312Y-111722505D01*
X150368000Y-111606237D01*
X150445688Y-111722505D01*
X150659495Y-111936312D01*
X150910905Y-112104299D01*
X151190257Y-112220011D01*
X151486816Y-112279000D01*
X151789184Y-112279000D01*
X152085743Y-112220011D01*
X152365095Y-112104299D01*
X152616505Y-111936312D01*
X152830312Y-111722505D01*
X152998299Y-111471095D01*
X153114011Y-111191743D01*
X153173000Y-110895184D01*
X153173000Y-110592816D01*
X153114011Y-110296257D01*
X152998299Y-110016905D01*
X152908000Y-109881763D01*
X152908000Y-87020061D01*
X157715000Y-87020061D01*
X157715000Y-87223939D01*
X157754774Y-87423898D01*
X157832795Y-87612256D01*
X157946063Y-87781774D01*
X157990001Y-87825712D01*
X157990000Y-88862677D01*
X157986324Y-88900000D01*
X157990000Y-88937322D01*
X157990000Y-88937332D01*
X158000997Y-89048985D01*
X158032845Y-89153974D01*
X158044454Y-89192246D01*
X158115026Y-89324276D01*
X158149320Y-89366063D01*
X158209999Y-89440001D01*
X158239002Y-89463803D01*
X158752001Y-89976803D01*
X158752000Y-109205928D01*
X158600000Y-109205928D01*
X158475518Y-109218188D01*
X158355820Y-109254498D01*
X158245506Y-109313463D01*
X158148815Y-109392815D01*
X158069463Y-109489506D01*
X158010498Y-109599820D01*
X157974188Y-109719518D01*
X157961928Y-109844000D01*
X157961928Y-111644000D01*
X157974188Y-111768482D01*
X158010498Y-111888180D01*
X158069463Y-111998494D01*
X158148815Y-112095185D01*
X158245506Y-112174537D01*
X158355820Y-112233502D01*
X158475518Y-112269812D01*
X158600000Y-112282072D01*
X160400000Y-112282072D01*
X160524482Y-112269812D01*
X160644180Y-112233502D01*
X160754494Y-112174537D01*
X160851185Y-112095185D01*
X160930537Y-111998494D01*
X160989502Y-111888180D01*
X160995056Y-111869873D01*
X161061495Y-111936312D01*
X161312905Y-112104299D01*
X161592257Y-112220011D01*
X161888816Y-112279000D01*
X162191184Y-112279000D01*
X162487743Y-112220011D01*
X162767095Y-112104299D01*
X163018505Y-111936312D01*
X163232312Y-111722505D01*
X163310000Y-111606237D01*
X163387688Y-111722505D01*
X163601495Y-111936312D01*
X163852905Y-112104299D01*
X164132257Y-112220011D01*
X164428816Y-112279000D01*
X164731184Y-112279000D01*
X165027743Y-112220011D01*
X165307095Y-112104299D01*
X165558505Y-111936312D01*
X165772312Y-111722505D01*
X165850000Y-111606237D01*
X165927688Y-111722505D01*
X166141495Y-111936312D01*
X166392905Y-112104299D01*
X166672257Y-112220011D01*
X166968816Y-112279000D01*
X167271184Y-112279000D01*
X167567743Y-112220011D01*
X167847095Y-112104299D01*
X168098505Y-111936312D01*
X168312312Y-111722505D01*
X168390000Y-111606237D01*
X168467688Y-111722505D01*
X168681495Y-111936312D01*
X168932905Y-112104299D01*
X169212257Y-112220011D01*
X169508816Y-112279000D01*
X169811184Y-112279000D01*
X170107743Y-112220011D01*
X170387095Y-112104299D01*
X170638505Y-111936312D01*
X170852312Y-111722505D01*
X171020299Y-111471095D01*
X171136011Y-111191743D01*
X171195000Y-110895184D01*
X171195000Y-110592816D01*
X171136011Y-110296257D01*
X171020299Y-110016905D01*
X170852312Y-109765495D01*
X170638505Y-109551688D01*
X170387095Y-109383701D01*
X170107743Y-109267989D01*
X169811184Y-109209000D01*
X169508816Y-109209000D01*
X169212257Y-109267989D01*
X168932905Y-109383701D01*
X168681495Y-109551688D01*
X168467688Y-109765495D01*
X168390000Y-109881763D01*
X168312312Y-109765495D01*
X168098505Y-109551688D01*
X167847095Y-109383701D01*
X167567743Y-109267989D01*
X167271184Y-109209000D01*
X166968816Y-109209000D01*
X166672257Y-109267989D01*
X166392905Y-109383701D01*
X166141495Y-109551688D01*
X165927688Y-109765495D01*
X165850000Y-109881763D01*
X165772312Y-109765495D01*
X165558505Y-109551688D01*
X165307095Y-109383701D01*
X165027743Y-109267989D01*
X164731184Y-109209000D01*
X164428816Y-109209000D01*
X164132257Y-109267989D01*
X163852905Y-109383701D01*
X163601495Y-109551688D01*
X163387688Y-109765495D01*
X163310000Y-109881763D01*
X163232312Y-109765495D01*
X163018505Y-109551688D01*
X162767095Y-109383701D01*
X162487743Y-109267989D01*
X162191184Y-109209000D01*
X161888816Y-109209000D01*
X161592257Y-109267989D01*
X161312905Y-109383701D01*
X161061495Y-109551688D01*
X160995056Y-109618127D01*
X160989502Y-109599820D01*
X160930537Y-109489506D01*
X160851185Y-109392815D01*
X160754494Y-109313463D01*
X160644180Y-109254498D01*
X160524482Y-109218188D01*
X160400000Y-109205928D01*
X160272000Y-109205928D01*
X160272000Y-89699325D01*
X160275676Y-89662000D01*
X160272000Y-89624675D01*
X160272000Y-89624667D01*
X160261003Y-89513014D01*
X160217546Y-89369753D01*
X160146974Y-89237724D01*
X160052001Y-89121999D01*
X160023002Y-89098201D01*
X159510000Y-88585199D01*
X159510000Y-87825711D01*
X159553937Y-87781774D01*
X159667205Y-87612256D01*
X159745226Y-87423898D01*
X159785000Y-87223939D01*
X159785000Y-87020061D01*
X159745226Y-86820102D01*
X159667205Y-86631744D01*
X159553937Y-86462226D01*
X159409774Y-86318063D01*
X159240256Y-86204795D01*
X159051898Y-86126774D01*
X158851939Y-86087000D01*
X158648061Y-86087000D01*
X158448102Y-86126774D01*
X158259744Y-86204795D01*
X158090226Y-86318063D01*
X157946063Y-86462226D01*
X157832795Y-86631744D01*
X157754774Y-86820102D01*
X157715000Y-87020061D01*
X152908000Y-87020061D01*
X152908000Y-75182000D01*
X154902678Y-75182000D01*
X154940000Y-75185676D01*
X154977322Y-75182000D01*
X154977333Y-75182000D01*
X155088986Y-75171003D01*
X155232247Y-75127546D01*
X155364276Y-75056974D01*
X155480001Y-74962001D01*
X155503803Y-74932998D01*
X156353006Y-74083796D01*
X156382004Y-74059998D01*
X156443926Y-73984546D01*
X156476977Y-73944274D01*
X156547549Y-73812244D01*
X156554296Y-73790002D01*
X156591006Y-73668983D01*
X156602003Y-73557330D01*
X156602003Y-73557320D01*
X156605679Y-73519997D01*
X156602003Y-73482674D01*
X156602003Y-72059325D01*
X156605679Y-72022002D01*
X156602003Y-71984679D01*
X156602003Y-71984670D01*
X156591006Y-71873017D01*
X156547549Y-71729756D01*
X156476977Y-71597727D01*
X156382004Y-71482002D01*
X156353006Y-71458204D01*
X156208000Y-71313198D01*
X156208000Y-70029469D01*
X156366632Y-69923475D01*
X156573475Y-69716632D01*
X156690000Y-69542240D01*
X156806525Y-69716632D01*
X157013368Y-69923475D01*
X157228000Y-70066888D01*
X157228001Y-83782667D01*
X157224324Y-83820000D01*
X157238998Y-83968985D01*
X157282454Y-84112246D01*
X157353026Y-84244276D01*
X157424201Y-84331002D01*
X157448000Y-84360001D01*
X157476998Y-84383799D01*
X163430000Y-90336802D01*
X163430000Y-90398939D01*
X163469774Y-90598898D01*
X163547795Y-90787256D01*
X163661063Y-90956774D01*
X163805226Y-91100937D01*
X163974744Y-91214205D01*
X164163102Y-91292226D01*
X164363061Y-91332000D01*
X164566939Y-91332000D01*
X164766898Y-91292226D01*
X164955256Y-91214205D01*
X165124774Y-91100937D01*
X165268937Y-90956774D01*
X165382205Y-90787256D01*
X165460226Y-90598898D01*
X165500000Y-90398939D01*
X165500000Y-90195061D01*
X165460226Y-89995102D01*
X165382205Y-89806744D01*
X165268937Y-89637226D01*
X165124774Y-89493063D01*
X164955256Y-89379795D01*
X164766898Y-89301774D01*
X164566939Y-89262000D01*
X164504802Y-89262000D01*
X158748000Y-83505199D01*
X158748000Y-73121205D01*
X158864939Y-73121205D01*
X159064898Y-73081431D01*
X159253256Y-73003410D01*
X159422774Y-72890142D01*
X159566937Y-72745979D01*
X159680205Y-72576461D01*
X159758226Y-72388103D01*
X159798000Y-72188144D01*
X159798000Y-71984266D01*
X159758226Y-71784307D01*
X159680205Y-71595949D01*
X159566937Y-71426431D01*
X159523000Y-71382494D01*
X159523000Y-70786801D01*
X160104399Y-70205403D01*
X160353740Y-70255000D01*
X160646260Y-70255000D01*
X160933158Y-70197932D01*
X161203411Y-70085990D01*
X161446632Y-69923475D01*
X161653475Y-69716632D01*
X161770000Y-69542240D01*
X161886525Y-69716632D01*
X162093368Y-69923475D01*
X162336589Y-70085990D01*
X162606842Y-70197932D01*
X162893740Y-70255000D01*
X163186260Y-70255000D01*
X163473158Y-70197932D01*
X163743411Y-70085990D01*
X163986632Y-69923475D01*
X164193475Y-69716632D01*
X164310000Y-69542240D01*
X164426525Y-69716632D01*
X164633368Y-69923475D01*
X164876589Y-70085990D01*
X165146842Y-70197932D01*
X165433740Y-70255000D01*
X165726260Y-70255000D01*
X166013158Y-70197932D01*
X166283411Y-70085990D01*
X166526632Y-69923475D01*
X166733475Y-69716632D01*
X166850000Y-69542240D01*
X166966525Y-69716632D01*
X167173368Y-69923475D01*
X167416589Y-70085990D01*
X167686842Y-70197932D01*
X167973740Y-70255000D01*
X168266260Y-70255000D01*
X168553158Y-70197932D01*
X168823411Y-70085990D01*
X169066632Y-69923475D01*
X169273475Y-69716632D01*
X169395195Y-69534466D01*
X169464822Y-69651355D01*
X169659731Y-69867588D01*
X169893080Y-70041641D01*
X170155901Y-70166825D01*
X170303110Y-70211476D01*
X170533000Y-70090155D01*
X170533000Y-68897000D01*
X170787000Y-68897000D01*
X170787000Y-70090155D01*
X171016890Y-70211476D01*
X171164099Y-70166825D01*
X171426920Y-70041641D01*
X171660269Y-69867588D01*
X171855178Y-69651355D01*
X172004157Y-69401252D01*
X172101481Y-69126891D01*
X171980814Y-68897000D01*
X170787000Y-68897000D01*
X170533000Y-68897000D01*
X170513000Y-68897000D01*
X170513000Y-68643000D01*
X170533000Y-68643000D01*
X170533000Y-68623000D01*
X170787000Y-68623000D01*
X170787000Y-68643000D01*
X171980814Y-68643000D01*
X172101481Y-68413109D01*
X172004157Y-68138748D01*
X171855178Y-67888645D01*
X171660269Y-67672412D01*
X171430594Y-67501100D01*
X171606632Y-67383475D01*
X171813475Y-67176632D01*
X171975990Y-66933411D01*
X172087932Y-66663158D01*
X172145000Y-66376260D01*
X172145000Y-66083740D01*
X172087932Y-65796842D01*
X171975990Y-65526589D01*
X171813475Y-65283368D01*
X171606632Y-65076525D01*
X171363411Y-64914010D01*
X171093158Y-64802068D01*
X170806260Y-64745000D01*
X170513740Y-64745000D01*
X170226842Y-64802068D01*
X169956589Y-64914010D01*
X169713368Y-65076525D01*
X169506525Y-65283368D01*
X169390000Y-65457760D01*
X169273475Y-65283368D01*
X169066632Y-65076525D01*
X168823411Y-64914010D01*
X168553158Y-64802068D01*
X168266260Y-64745000D01*
X167973740Y-64745000D01*
X167686842Y-64802068D01*
X167416589Y-64914010D01*
X167173368Y-65076525D01*
X166966525Y-65283368D01*
X166850000Y-65457760D01*
X166733475Y-65283368D01*
X166526632Y-65076525D01*
X166283411Y-64914010D01*
X166013158Y-64802068D01*
X165726260Y-64745000D01*
X165433740Y-64745000D01*
X165146842Y-64802068D01*
X164876589Y-64914010D01*
X164633368Y-65076525D01*
X164426525Y-65283368D01*
X164304805Y-65465534D01*
X164235178Y-65348645D01*
X164040269Y-65132412D01*
X163806920Y-64958359D01*
X163544099Y-64833175D01*
X163396890Y-64788524D01*
X163167000Y-64909845D01*
X163167000Y-66103000D01*
X163187000Y-66103000D01*
X163187000Y-66357000D01*
X163167000Y-66357000D01*
X163167000Y-66377000D01*
X162913000Y-66377000D01*
X162913000Y-66357000D01*
X162893000Y-66357000D01*
X162893000Y-66103000D01*
X162913000Y-66103000D01*
X162913000Y-64909845D01*
X162683110Y-64788524D01*
X162535901Y-64833175D01*
X162273080Y-64958359D01*
X162039731Y-65132412D01*
X161844822Y-65348645D01*
X161775195Y-65465534D01*
X161653475Y-65283368D01*
X161446632Y-65076525D01*
X161203411Y-64914010D01*
X160933158Y-64802068D01*
X160646260Y-64745000D01*
X160353740Y-64745000D01*
X160066842Y-64802068D01*
X159796589Y-64914010D01*
X159553368Y-65076525D01*
X159346525Y-65283368D01*
X159224805Y-65465534D01*
X159155178Y-65348645D01*
X158960269Y-65132412D01*
X158726920Y-64958359D01*
X158464099Y-64833175D01*
X158316890Y-64788524D01*
X158087000Y-64909845D01*
X158087000Y-66103000D01*
X158107000Y-66103000D01*
X158107000Y-66357000D01*
X158087000Y-66357000D01*
X158087000Y-66377000D01*
X157833000Y-66377000D01*
X157833000Y-66357000D01*
X157813000Y-66357000D01*
X157813000Y-66103000D01*
X157833000Y-66103000D01*
X157833000Y-64909845D01*
X157603110Y-64788524D01*
X157455901Y-64833175D01*
X157193080Y-64958359D01*
X156959731Y-65132412D01*
X156764822Y-65348645D01*
X156695195Y-65465534D01*
X156573475Y-65283368D01*
X156366632Y-65076525D01*
X156123411Y-64914010D01*
X155853158Y-64802068D01*
X155566260Y-64745000D01*
X155273740Y-64745000D01*
X154986842Y-64802068D01*
X154716589Y-64914010D01*
X154473368Y-65076525D01*
X154266525Y-65283368D01*
X154150000Y-65457760D01*
X154033475Y-65283368D01*
X153826632Y-65076525D01*
X153583411Y-64914010D01*
X153313158Y-64802068D01*
X153026260Y-64745000D01*
X152733740Y-64745000D01*
X152446842Y-64802068D01*
X152176589Y-64914010D01*
X151933368Y-65076525D01*
X151726525Y-65283368D01*
X151610000Y-65457760D01*
X151493475Y-65283368D01*
X151286632Y-65076525D01*
X151043411Y-64914010D01*
X150773158Y-64802068D01*
X150486260Y-64745000D01*
X150193740Y-64745000D01*
X149906842Y-64802068D01*
X149636589Y-64914010D01*
X149393368Y-65076525D01*
X149186525Y-65283368D01*
X149070000Y-65457760D01*
X148953475Y-65283368D01*
X148746632Y-65076525D01*
X148503411Y-64914010D01*
X148233158Y-64802068D01*
X147946260Y-64745000D01*
X147653740Y-64745000D01*
X147366842Y-64802068D01*
X147096589Y-64914010D01*
X146853368Y-65076525D01*
X146646525Y-65283368D01*
X146524805Y-65465534D01*
X146455178Y-65348645D01*
X146260269Y-65132412D01*
X146026920Y-64958359D01*
X145764099Y-64833175D01*
X145616890Y-64788524D01*
X145387000Y-64909845D01*
X145387000Y-66103000D01*
X145407000Y-66103000D01*
X145407000Y-66357000D01*
X145387000Y-66357000D01*
X145387000Y-66377000D01*
X145133000Y-66377000D01*
X145133000Y-66357000D01*
X145113000Y-66357000D01*
X145113000Y-66103000D01*
X145133000Y-66103000D01*
X145133000Y-64909845D01*
X144903110Y-64788524D01*
X144755901Y-64833175D01*
X144493080Y-64958359D01*
X144259731Y-65132412D01*
X144064822Y-65348645D01*
X143995195Y-65465534D01*
X143873475Y-65283368D01*
X143666632Y-65076525D01*
X143423411Y-64914010D01*
X143153158Y-64802068D01*
X142866260Y-64745000D01*
X142573740Y-64745000D01*
X142286842Y-64802068D01*
X142016589Y-64914010D01*
X141773368Y-65076525D01*
X141566525Y-65283368D01*
X141450000Y-65457760D01*
X141333475Y-65283368D01*
X141126632Y-65076525D01*
X140883411Y-64914010D01*
X140613158Y-64802068D01*
X140326260Y-64745000D01*
X140033740Y-64745000D01*
X139746842Y-64802068D01*
X139476589Y-64914010D01*
X139233368Y-65076525D01*
X139026525Y-65283368D01*
X138904805Y-65465534D01*
X138835178Y-65348645D01*
X138640269Y-65132412D01*
X138406920Y-64958359D01*
X138144099Y-64833175D01*
X137996890Y-64788524D01*
X137767000Y-64909845D01*
X137767000Y-66103000D01*
X137787000Y-66103000D01*
X137787000Y-66357000D01*
X137767000Y-66357000D01*
X137767000Y-66377000D01*
X137513000Y-66377000D01*
X137513000Y-66357000D01*
X137493000Y-66357000D01*
X137493000Y-66103000D01*
X137513000Y-66103000D01*
X137513000Y-64909845D01*
X137283110Y-64788524D01*
X137135901Y-64833175D01*
X136873080Y-64958359D01*
X136639731Y-65132412D01*
X136444822Y-65348645D01*
X136375195Y-65465534D01*
X136253475Y-65283368D01*
X136046632Y-65076525D01*
X135803411Y-64914010D01*
X135533158Y-64802068D01*
X135246260Y-64745000D01*
X134953740Y-64745000D01*
X134666842Y-64802068D01*
X134396589Y-64914010D01*
X134153368Y-65076525D01*
X133946525Y-65283368D01*
X133830000Y-65457760D01*
X133713475Y-65283368D01*
X133506632Y-65076525D01*
X133263411Y-64914010D01*
X132993158Y-64802068D01*
X132706260Y-64745000D01*
X132413740Y-64745000D01*
X132126842Y-64802068D01*
X131856589Y-64914010D01*
X131613368Y-65076525D01*
X131406525Y-65283368D01*
X131290000Y-65457760D01*
X131173475Y-65283368D01*
X130966632Y-65076525D01*
X130723411Y-64914010D01*
X130453158Y-64802068D01*
X130166260Y-64745000D01*
X129873740Y-64745000D01*
X129586842Y-64802068D01*
X129316589Y-64914010D01*
X129073368Y-65076525D01*
X128866525Y-65283368D01*
X128744805Y-65465534D01*
X128675178Y-65348645D01*
X128480269Y-65132412D01*
X128246920Y-64958359D01*
X127984099Y-64833175D01*
X127836890Y-64788524D01*
X127607000Y-64909845D01*
X127607000Y-66103000D01*
X127627000Y-66103000D01*
X127627000Y-66357000D01*
X127607000Y-66357000D01*
X127607000Y-66377000D01*
X127353000Y-66377000D01*
X127353000Y-66357000D01*
X127333000Y-66357000D01*
X127333000Y-66103000D01*
X127353000Y-66103000D01*
X127353000Y-64909845D01*
X127123110Y-64788524D01*
X126975901Y-64833175D01*
X126713080Y-64958359D01*
X126479731Y-65132412D01*
X126284822Y-65348645D01*
X126215195Y-65465534D01*
X126093475Y-65283368D01*
X125886632Y-65076525D01*
X125643411Y-64914010D01*
X125373158Y-64802068D01*
X125086260Y-64745000D01*
X124793740Y-64745000D01*
X124506842Y-64802068D01*
X124236589Y-64914010D01*
X123993368Y-65076525D01*
X123786525Y-65283368D01*
X123670000Y-65457760D01*
X123553475Y-65283368D01*
X123346632Y-65076525D01*
X123103411Y-64914010D01*
X122833158Y-64802068D01*
X122546260Y-64745000D01*
X122253740Y-64745000D01*
X121966842Y-64802068D01*
X121696589Y-64914010D01*
X121453368Y-65076525D01*
X121246525Y-65283368D01*
X121084010Y-65526589D01*
X120972068Y-65796842D01*
X120915000Y-66083740D01*
X120915000Y-66376260D01*
X120972068Y-66663158D01*
X121084010Y-66933411D01*
X121246525Y-67176632D01*
X121378380Y-67308487D01*
X121305820Y-67330498D01*
X121195506Y-67389463D01*
X121098815Y-67468815D01*
X121019463Y-67565506D01*
X120960498Y-67675820D01*
X120924188Y-67795518D01*
X120911928Y-67920000D01*
X120816793Y-67920000D01*
X120835000Y-67828469D01*
X120835000Y-67171531D01*
X120706838Y-66527216D01*
X120455439Y-65920285D01*
X120090464Y-65374061D01*
X119625939Y-64909536D01*
X119252482Y-64660000D01*
X173747518Y-64660000D01*
X173374061Y-64909536D01*
G37*
%TD.AperFunction*%
D18*
X153007000Y-68643000D02*
X153027000Y-68643000D01*
X153027000Y-68897000D01*
X153007000Y-68897000D01*
X153007000Y-70090155D01*
X153236890Y-70211476D01*
X153384099Y-70166825D01*
X153399002Y-70159727D01*
X153399002Y-72022238D01*
X153395325Y-72059570D01*
X153399002Y-72096903D01*
X153409999Y-72208556D01*
X153420341Y-72242648D01*
X153453455Y-72351816D01*
X153524027Y-72483846D01*
X153577499Y-72549001D01*
X153619001Y-72599571D01*
X153647999Y-72623369D01*
X153771889Y-72747259D01*
X153771889Y-72809397D01*
X153811663Y-73009356D01*
X153889684Y-73197714D01*
X154002952Y-73367232D01*
X154147115Y-73511395D01*
X154316633Y-73624663D01*
X154406772Y-73662000D01*
X152341705Y-73662000D01*
X152297768Y-73618063D01*
X152265500Y-73596502D01*
X152297774Y-73574937D01*
X152441937Y-73430774D01*
X152555205Y-73261256D01*
X152633226Y-73072898D01*
X152673000Y-72872939D01*
X152673000Y-72669061D01*
X152633226Y-72469102D01*
X152555205Y-72280744D01*
X152441937Y-72111226D01*
X152398000Y-72067289D01*
X152398000Y-70173528D01*
X152523110Y-70211476D01*
X152753000Y-70090155D01*
X152753000Y-68897000D01*
X152733000Y-68897000D01*
X152733000Y-68643000D01*
X152753000Y-68643000D01*
X152753000Y-68623000D01*
X153007000Y-68623000D01*
X153007000Y-68643000D01*
%TA.AperFunction,Conductor*%
D19*
G36*
X153007000Y-68643000D02*
G01*
X153027000Y-68643000D01*
X153027000Y-68897000D01*
X153007000Y-68897000D01*
X153007000Y-70090155D01*
X153236890Y-70211476D01*
X153384099Y-70166825D01*
X153399002Y-70159727D01*
X153399002Y-72022238D01*
X153395325Y-72059570D01*
X153399002Y-72096903D01*
X153409999Y-72208556D01*
X153420341Y-72242648D01*
X153453455Y-72351816D01*
X153524027Y-72483846D01*
X153577499Y-72549001D01*
X153619001Y-72599571D01*
X153647999Y-72623369D01*
X153771889Y-72747259D01*
X153771889Y-72809397D01*
X153811663Y-73009356D01*
X153889684Y-73197714D01*
X154002952Y-73367232D01*
X154147115Y-73511395D01*
X154316633Y-73624663D01*
X154406772Y-73662000D01*
X152341705Y-73662000D01*
X152297768Y-73618063D01*
X152265500Y-73596502D01*
X152297774Y-73574937D01*
X152441937Y-73430774D01*
X152555205Y-73261256D01*
X152633226Y-73072898D01*
X152673000Y-72872939D01*
X152673000Y-72669061D01*
X152633226Y-72469102D01*
X152555205Y-72280744D01*
X152441937Y-72111226D01*
X152398000Y-72067289D01*
X152398000Y-70173528D01*
X152523110Y-70211476D01*
X152753000Y-70090155D01*
X152753000Y-68897000D01*
X152733000Y-68897000D01*
X152733000Y-68643000D01*
X152753000Y-68643000D01*
X152753000Y-68623000D01*
X153007000Y-68623000D01*
X153007000Y-68643000D01*
G37*
%TD.AperFunction*%
D18*
X132687000Y-68643000D02*
X132707000Y-68643000D01*
X132707000Y-68897000D01*
X132687000Y-68897000D01*
X132687000Y-68917000D01*
X132433000Y-68917000D01*
X132433000Y-68897000D01*
X132413000Y-68897000D01*
X132413000Y-68643000D01*
X132433000Y-68643000D01*
X132433000Y-68623000D01*
X132687000Y-68623000D01*
X132687000Y-68643000D01*
%TA.AperFunction,Conductor*%
D19*
G36*
X132687000Y-68643000D02*
G01*
X132707000Y-68643000D01*
X132707000Y-68897000D01*
X132687000Y-68897000D01*
X132687000Y-68917000D01*
X132433000Y-68917000D01*
X132433000Y-68897000D01*
X132413000Y-68897000D01*
X132413000Y-68643000D01*
X132433000Y-68643000D01*
X132433000Y-68623000D01*
X132687000Y-68623000D01*
X132687000Y-68643000D01*
G37*
%TD.AperFunction*%
%TD*%
M02*
