M48
; DRILL file {KiCad (5.1.10)-1} date 12/08/21 13:53:56
; FORMAT={-:-/ absolute / inch / decimal}
; #@! TF.CreationDate,2021-12-08T13:53:56+01:00
; #@! TF.GenerationSoftware,Kicad,Pcbnew,(5.1.10)-1
FMAT,2
INCH
T1C0.0157
T2C0.0394
T3C0.1063
%
G90
G05
T1
X4.605Y-2.81
X4.6063Y-4.252
X4.71Y-3.195
X4.71Y-3.725
X4.815Y-2.81
X5.1Y-4.0
X5.12Y-2.885
X5.12Y-3.195
X5.245Y-3.44
X5.269Y-2.7878
X5.27Y-2.835
X5.345Y-3.44
X5.4134Y-4.252
X5.4134Y-4.4488
X5.4134Y-4.6654
X5.4331Y-3.7992
X5.435Y-4.07
X5.49Y-3.485
X5.6Y-3.485
X5.68Y-3.44
X5.69Y-3.605
X5.735Y-3.44
X5.97Y-2.93
X5.97Y-2.865
X5.975Y-3.55
X6.025Y-2.865
X6.0948Y-2.8625
X6.122Y-4.252
X6.122Y-4.4488
X6.122Y-4.6654
X6.18Y-3.05
X6.1811Y-3.7992
X6.25Y-3.43
X6.2505Y-2.838
X6.27Y-3.05
X6.437Y-3.7992
X6.475Y-3.555
X6.9291Y-3.0709
X6.9291Y-3.8583
X6.9291Y-4.252
X6.93Y-3.42
T2
X4.7113Y-2.9397
X4.7113Y-3.0397
X4.8189Y-2.6075
X4.8189Y-2.7075
X4.86Y-4.36
X4.86Y-4.5569
X4.9082Y-2.9397
X4.9082Y-3.0397
X4.9189Y-2.6075
X4.9189Y-2.7075
X4.96Y-4.36
X4.96Y-4.5569
X5.0189Y-2.6075
X5.0189Y-2.7075
X5.06Y-4.36
X5.06Y-4.5569
X5.1189Y-2.6075
X5.1189Y-2.7075
X5.16Y-4.36
X5.16Y-4.5569
X5.2189Y-2.6075
X5.2189Y-2.7075
X5.26Y-4.36
X5.26Y-4.5569
X5.3189Y-2.6075
X5.3189Y-2.7075
X5.4189Y-2.6075
X5.4189Y-2.7075
X5.5189Y-2.6075
X5.5189Y-2.7075
X5.57Y-4.36
X5.57Y-4.5569
X5.6189Y-2.6075
X5.6189Y-2.7075
X5.67Y-4.36
X5.67Y-4.5569
X5.7189Y-2.6075
X5.7189Y-2.7075
X5.77Y-4.36
X5.77Y-4.5569
X5.8189Y-2.6075
X5.8189Y-2.7075
X5.87Y-4.36
X5.87Y-4.5569
X5.9189Y-2.6075
X5.9189Y-2.7075
X5.97Y-4.36
X5.97Y-4.5569
X6.0189Y-2.6075
X6.0189Y-2.7075
X6.1189Y-2.6075
X6.1189Y-2.7075
X6.2189Y-2.6075
X6.2189Y-2.7075
X6.2795Y-4.36
X6.2795Y-4.5569
X6.3189Y-2.6075
X6.3189Y-2.7075
X6.3795Y-4.36
X6.3795Y-4.5569
X6.4189Y-2.6075
X6.4189Y-2.7075
X6.4795Y-4.36
X6.4795Y-4.5569
X6.5189Y-2.6075
X6.5189Y-2.7075
X6.5795Y-4.36
X6.5795Y-4.5569
X6.6189Y-2.6075
X6.6189Y-2.7075
X6.6795Y-4.36
X6.6795Y-4.5569
X6.7189Y-2.6075
X6.7189Y-2.7075
T3
X4.626Y-2.6575
X4.626Y-4.5866
X6.9094Y-2.6575
X6.9094Y-4.5866
T0
M30
